0, 0, Header, 1, 2, 256
1, 0, Start_track
1, 0, Time_signature, 9, 3, 36, 8
1, 0, Key_signature, -5, "major"
1, 0, Tempo, 1250000
1, 0, Copyright_t, "Copyright © "
1, 384, Tempo, 888887
1, 768, Tempo, 1111111
1, 1152, Tempo, 1052631
1, 1280, Tempo, 930232
1, 1536, Tempo, 769230
1, 2304, Tempo, 833332
1, 3456, Tempo, 784313
1, 4224, Tempo, 769230
1, 5120, Tempo, 740739
1, 6016, Tempo, 769230
1, 6528, Tempo, 1081081
1, 6912, Tempo, 800000
1, 7168, Tempo, 784313
1, 7680, Tempo, 769230
1, 8064, Tempo, 754715
1, 8832, Tempo, 952379
1, 9024, Tempo, 1081081
1, 9216, Tempo, 975609
1, 9600, Tempo, 952379
1, 10368, Tempo, 888887
1, 10752, Tempo, 769230
1, 11520, Tempo, 888887
1, 11776, Tempo, 800000
1, 11904, Tempo, 909089
1, 12800, Tempo, 816326
1, 13056, Tempo, 869565
1, 14080, Tempo, 833332
1, 14592, Tempo, 800000
1, 15162, Tempo, 816326
1, 15446, Tempo, 769230
1, 15744, Tempo, 833332
1, 16128, Tempo, 975609
1, 16640, Tempo, 689654
1, 16768, Tempo, 666665
1, 17024, Tempo, 645161
1, 17279, Tempo, 666665
1, 17408, Tempo, 689654
1, 17536, Tempo, 714285
1, 17664, Tempo, 740739
1, 17856, Tempo, 754715
1, 18048, Tempo, 615383
1, 18432, Tempo, 952379
1, 18624, Tempo, 869565
1, 18944, Tempo, 677965
1, 19200, Tempo, 634920
1, 19584, Tempo, 655736
1, 19712, Tempo, 689654
1, 19968, Tempo, 727271
1, 20352, Tempo, 571427
1, 20736, Tempo, 571426
1, 20736, Tempo, 1052631
1, 20736, Time_signature, 6, 3, 36, 8
1, 21504, Tempo, 1052631
1, 21504, Tempo, 645161
1, 21504, Time_signature, 9, 3, 36, 8
1, 21888, Tempo, 625000
1, 22272, Tempo, 689654
1, 22656, Tempo, 689654
1, 22656, Tempo, 975609
1, 22656, Time_signature, 6, 3, 36, 8
1, 23424, Tempo, 975609
1, 23424, Tempo, 625000
1, 23424, Time_signature, 9, 3, 36, 8
1, 23808, Tempo, 606059
1, 24192, Tempo, 634920
1, 24576, Tempo, 634920
1, 24576, Tempo, 952379
1, 24576, Time_signature, 6, 3, 36, 8
1, 25344, Tempo, 952378
1, 25344, Tempo, 615383
1, 25344, Time_signature, 9, 3, 36, 8
1, 25600, Tempo, 606059
1, 25728, Tempo, 597014
1, 26112, Tempo, 634920
1, 26240, Tempo, 655736
1, 27264, Tempo, 689654
1, 27648, Tempo, 727271
1, 28416, Tempo, 1081081
1, 28800, Tempo, 625000
1, 29568, Tempo, 666665
1, 29760, Tempo, 689654
1, 29952, Tempo, 645161
1, 30016, Tempo, 634920
1, 30144, Tempo, 625000
1, 30720, Tempo, 634920
1, 31104, Tempo, 645161
1, 31232, Tempo, 634920
1, 31488, Tempo, 625000
1, 31808, Tempo, 615383
1, 32640, Tempo, 625000
1, 32896, Tempo, 645161
1, 33152, Tempo, 666665
1, 33408, Tempo, 645161
1, 33536, Tempo, 625000
1, 34201, Tempo, 645161
1, 34624, Tempo, 634920
1, 35008, Tempo, 615383
1, 35392, Tempo, 625000
1, 35776, Tempo, 634920
1, 36160, Tempo, 655736
1, 36544, Tempo, 666665
1, 36864, Tempo, 655736
1, 37184, Tempo, 677965
1, 37504, Tempo, 689654
1, 37824, Tempo, 714285
1, 38015, Tempo, 645161
1, 38208, Tempo, 634920
1, 38748, Tempo, 645161
1, 39232, Tempo, 645161
1, 39488, Tempo, 634920
1, 39680, Tempo, 625000
1, 39872, Tempo, 634920
1, 40000, Tempo, 645161
1, 40319, Tempo, 625000
1, 40640, Tempo, 615383
1, 41088, Tempo, 606059
1, 41472, Tempo, 615383
1, 41920, Tempo, 625000
1, 43200, Tempo, 634920
1, 44544, Tempo, 714285
1, 44927, Tempo, 606059
1, 45184, Tempo, 615383
1, 45440, Tempo, 625000
1, 46080, Tempo, 634920
1, 46528, Tempo, 655736
1, 47040, Tempo, 689654
1, 49280, Tempo, 655736
1, 51584, Tempo, 645161
1, 52608, Tempo, 634920
1, 53824, Tempo, 625000
1, 54592, Tempo, 634920
1, 55104, Tempo, 645161
1, 55360, Tempo, 655736
1, 55744, Tempo, 666665
1, 56128, Tempo, 677965
1, 56448, Tempo, 740739
1, 58784, Tempo, 727271
1, 59904, Tempo, 714285
1, 60288, Tempo, 727271
1, 61184, Tempo, 714285
1, 61440, Tempo, 769230
1, 61952, Tempo, 727271
1, 63680, Tempo, 754715
1, 64000, Tempo, 769230
1, 64256, Tempo, 740739
1, 64512, Tempo, 784313
1, 65280, Tempo, 869565
1, 66432, Tempo, 851063
1, 67200, Tempo, 833332
1, 67968, Tempo, 851063
1, 68736, Tempo, 833332
1, 69888, Tempo, 851063
1, 70272, Tempo, 869565
1, 71424, Tempo, 888887
1, 72576, Tempo, 909089
1, 72960, Tempo, 952379
1, 73727, Tempo, 701754
1, 74048, Tempo, 677965
1, 74560, Tempo, 689654
1, 74880, Tempo, 677965
1, 75520, Tempo, 689654
1, 76032, Tempo, 677965
1, 76416, Tempo, 666665
1, 78336, Tempo, 677965
1, 78720, Tempo, 689654
1, 79104, Tempo, 727271
1, 79590, Tempo, 740739
1, 79744, Tempo, 754715
1, 79872, Tempo, 769230
1, 80000, Tempo, 800000
1, 80085, Tempo, 833332
1, 80256, Tempo, 869565
1, 80384, Tempo, 930232
1, 80512, Tempo, 1111111
1, 80513, End_track
2, 0, Start_track
2, 0, Program_c, 0, 0
2, 0, Control_c, 0, 121, 0
2, 0, Control_c, 0, 64, 0
2, 0, Control_c, 0, 10, 51
2, 0, Control_c, 0, 7, 95
2, 0, Control_c, 0, 121, 0
2, 0, Control_c, 0, 64, 0
2, 0, Control_c, 0, 10, 51
2, 0, Control_c, 0, 7, 95
2, 0, Title_t, "Piano"
2, 128, Note_on_c, 0, 65, 39
2, 128, Note_on_c, 0, 68, 39
2, 128, Control_c, 0, 64, 127
2, 128, Note_on_c, 0, 65, 48
2, 128, Note_on_c, 0, 68, 48
2, 256, Note_on_c, 0, 77, 61
2, 256, Note_on_c, 0, 80, 61
2, 258, Note_off_c, 0, 65, 0
2, 258, Note_off_c, 0, 68, 0
2, 768, Note_off_c, 0, 77, 0
2, 768, Note_on_c, 0, 73, 46
2, 768, Note_on_c, 0, 77, 46
2, 778, Note_off_c, 0, 80, 0
2, 932, Control_c, 0, 64, 0
2, 1152, Note_off_c, 0, 65, 0
2, 1152, Note_off_c, 0, 68, 0
2, 1152, Control_c, 0, 64, 127
2, 1152, Note_on_c, 0, 66, 55
2, 1152, Note_on_c, 0, 69, 55
2, 1254, Note_off_c, 0, 73, 0
2, 1254, Note_off_c, 0, 77, 0
2, 1280, Note_on_c, 0, 72, 45
2, 1280, Note_on_c, 0, 75, 45
2, 1408, Note_on_c, 0, 73, 49
2, 1408, Note_on_c, 0, 77, 49
2, 1410, Note_off_c, 0, 72, 0
2, 1410, Note_off_c, 0, 75, 0
2, 1536, Note_on_c, 0, 72, 51
2, 1536, Note_on_c, 0, 75, 51
2, 1538, Note_off_c, 0, 73, 0
2, 1538, Note_off_c, 0, 77, 0
2, 1956, Control_c, 0, 64, 0
2, 2304, Note_off_c, 0, 66, 0
2, 2304, Note_off_c, 0, 69, 0
2, 2304, Note_on_c, 0, 65, 51
2, 2304, Note_on_c, 0, 68, 51
2, 2387, Note_off_c, 0, 72, 0
2, 2387, Note_off_c, 0, 75, 0
2, 2432, Note_on_c, 0, 70, 46
2, 2432, Note_on_c, 0, 73, 46
2, 2560, Note_on_c, 0, 72, 45
2, 2560, Note_on_c, 0, 75, 45
2, 2562, Note_off_c, 0, 70, 0
2, 2562, Note_off_c, 0, 73, 0
2, 2688, Note_on_c, 0, 73, 46
2, 2688, Note_on_c, 0, 70, 43
2, 2688, Control_c, 0, 64, 127
2, 2690, Note_off_c, 0, 72, 0
2, 2690, Note_off_c, 0, 75, 0
2, 2880, Note_on_c, 0, 77, 53
2, 2883, Note_off_c, 0, 73, 0
2, 3264, Note_on_c, 0, 73, 46
2, 3264, Control_c, 0, 64, 0
2, 3271, Note_off_c, 0, 77, 0
2, 3456, Note_off_c, 0, 65, 0
2, 3456, Note_off_c, 0, 68, 0
2, 3456, Note_on_c, 0, 63, 48
2, 3456, Note_on_c, 0, 66, 48
2, 3584, Note_on_c, 0, 68, 46
2, 3584, Note_on_c, 0, 72, 46
2, 3590, Note_off_c, 0, 73, 0
2, 3601, Note_off_c, 0, 70, 0
2, 3712, Note_on_c, 0, 70, 48
2, 3712, Note_on_c, 0, 73, 48
2, 3714, Note_off_c, 0, 68, 0
2, 3714, Note_off_c, 0, 72, 0
2, 3840, Note_on_c, 0, 72, 43
2, 3840, Note_on_c, 0, 68, 47
2, 3840, Control_c, 0, 64, 127
2, 3842, Note_off_c, 0, 70, 0
2, 3842, Note_off_c, 0, 73, 0
2, 4416, Control_c, 0, 64, 0
2, 4569, Note_off_c, 0, 68, 0
2, 4608, Note_on_c, 0, 66, 48
2, 4608, Note_off_c, 0, 63, 0
2, 4608, Note_off_c, 0, 66, 0
2, 4608, Control_c, 0, 64, 127
2, 4608, Note_on_c, 0, 63, 46
2, 4608, Note_on_c, 0, 61, 40
2, 4691, Note_off_c, 0, 72, 0
2, 4736, Note_on_c, 0, 70, 50
2, 4864, Note_on_c, 0, 72, 58
2, 4866, Note_off_c, 0, 70, 0
2, 4992, Note_on_c, 0, 70, 50
2, 4994, Note_off_c, 0, 72, 0
2, 5120, Note_on_c, 0, 75, 58
2, 5122, Note_off_c, 0, 70, 0
2, 5184, Control_c, 0, 64, 0
2, 5248, Note_on_c, 0, 70, 48
2, 5250, Note_off_c, 0, 75, 0
2, 5376, Note_off_c, 0, 66, 0
2, 5376, Note_on_c, 0, 68, 41
2, 5376, Note_on_c, 0, 66, 53
2, 5376, Note_off_c, 0, 63, 0
2, 5376, Note_off_c, 0, 61, 0
2, 5376, Control_c, 0, 64, 127
2, 5376, Note_on_c, 0, 63, 50
2, 5376, Note_on_c, 0, 60, 50
2, 5378, Note_off_c, 0, 70, 0
2, 5504, Note_on_c, 0, 70, 49
2, 5506, Note_off_c, 0, 68, 0
2, 5632, Note_on_c, 0, 68, 46
2, 5634, Note_off_c, 0, 70, 0
2, 5760, Note_on_c, 0, 63, 48
2, 5760, Note_off_c, 0, 63, 0
2, 5760, Note_off_c, 0, 60, 0
2, 5760, Control_c, 0, 64, 127
2, 5760, Note_on_c, 0, 61, 49
2, 5760, Note_on_c, 0, 58, 50
2, 5766, Control_c, 0, 64, 0
2, 5767, Note_off_c, 0, 66, 0
2, 5888, Note_on_c, 0, 66, 50
2, 5893, Note_off_c, 0, 68, 0
2, 6016, Note_on_c, 0, 68, 54
2, 6018, Note_off_c, 0, 66, 0
2, 6144, Note_on_c, 0, 66, 48
2, 6146, Note_off_c, 0, 68, 0
2, 6336, Control_c, 0, 64, 0
2, 6361, Control_c, 0, 64, 127
2, 6528, Note_off_c, 0, 63, 0
2, 6528, Note_on_c, 0, 65, 46
2, 6528, Note_on_c, 0, 63, 52
2, 6528, Note_off_c, 0, 61, 0
2, 6528, Note_off_c, 0, 58, 0
2, 6528, Note_on_c, 0, 60, 47
2, 6528, Note_on_c, 0, 57, 47
2, 6535, Note_off_c, 0, 66, 0
2, 6751, Control_c, 0, 64, 0
2, 6892, Note_off_c, 0, 63, 0
2, 6912, Note_on_c, 0, 61, 48
2, 6912, Note_off_c, 0, 60, 0
2, 6912, Note_off_c, 0, 57, 0
2, 6912, Control_c, 0, 64, 127
2, 6912, Note_on_c, 0, 58, 46
2, 6912, Note_on_c, 0, 56, 54
2, 7014, Note_off_c, 0, 65, 0
2, 7040, Note_on_c, 0, 65, 50
2, 7168, Note_on_c, 0, 66, 52
2, 7168, Control_c, 0, 64, 0
2, 7170, Note_off_c, 0, 65, 0
2, 7296, Note_on_c, 0, 65, 51
2, 7296, Control_c, 0, 64, 127
2, 7298, Note_off_c, 0, 66, 0
2, 7424, Note_on_c, 0, 70, 59
2, 7426, Note_off_c, 0, 65, 0
2, 7552, Note_on_c, 0, 65, 45
2, 7552, Control_c, 0, 64, 0
2, 7554, Note_off_c, 0, 70, 0
2, 7680, Note_on_c, 0, 63, 38
2, 7680, Note_off_c, 0, 56, 0
2, 7680, Control_c, 0, 64, 127
2, 7680, Note_on_c, 0, 54, 48
2, 7682, Note_off_c, 0, 65, 0
2, 7808, Note_on_c, 0, 65, 54
2, 7810, Note_off_c, 0, 63, 0
2, 7936, Note_on_c, 0, 63, 52
2, 7938, Note_off_c, 0, 65, 0
2, 8006, Note_off_c, 0, 61, 0
2, 8064, Note_on_c, 0, 58, 51
2, 8064, Note_off_c, 0, 58, 0
2, 8064, Note_off_c, 0, 54, 0
2, 8064, Note_on_c, 0, 56, 52
2, 8064, Note_on_c, 0, 53, 49
2, 8070, Control_c, 0, 64, 0
2, 8179, Note_off_c, 0, 63, 0
2, 8192, Note_on_c, 0, 61, 45
2, 8192, Control_c, 0, 64, 127
2, 8320, Note_on_c, 0, 63, 47
2, 8322, Note_off_c, 0, 61, 0
2, 8448, Note_on_c, 0, 61, 48
2, 8450, Note_off_c, 0, 63, 0
2, 8665, Control_c, 0, 64, 0
2, 8832, Note_on_c, 0, 60, 49
2, 8832, Note_on_c, 0, 56, 51
2, 8832, Note_off_c, 0, 56, 0
2, 8832, Note_off_c, 0, 53, 0
2, 8832, Note_on_c, 0, 54, 51
2, 8832, Note_on_c, 0, 51, 55
2, 8839, Note_off_c, 0, 61, 0
2, 8847, Note_off_c, 0, 58, 0
2, 9024, Note_off_c, 0, 51, 0
2, 9024, Note_on_c, 0, 44, 45
2, 9216, Note_off_c, 0, 54, 0
2, 9216, Control_c, 0, 64, 127
2, 9216, Note_on_c, 0, 37, 43
2, 9223, Note_off_c, 0, 60, 0
2, 9223, Note_off_c, 0, 56, 0
2, 9344, Note_off_c, 0, 44, 0
2, 9344, Note_on_c, 0, 53, 47
2, 9344, Note_on_c, 0, 56, 47
2, 9346, Note_off_c, 0, 37, 0
2, 9472, Note_on_c, 0, 65, 66
2, 9472, Note_on_c, 0, 68, 66
2, 9474, Note_off_c, 0, 53, 0
2, 9474, Note_off_c, 0, 56, 0
2, 9600, Note_on_c, 0, 77, 65
2, 9600, Note_on_c, 0, 80, 65
2, 9984, Note_off_c, 0, 77, 0
2, 9984, Note_on_c, 0, 73, 60
2, 9984, Note_on_c, 0, 77, 60
2, 9984, Control_c, 0, 64, 0
2, 9991, Note_off_c, 0, 80, 0
2, 10323, Note_off_c, 0, 65, 0
2, 10323, Note_off_c, 0, 68, 0
2, 10368, Note_on_c, 0, 42, 48
2, 10368, Note_on_c, 0, 49, 48
2, 10470, Note_off_c, 0, 73, 0
2, 10470, Note_off_c, 0, 77, 0
2, 10496, Note_on_c, 0, 75, 44
2, 10496, Note_on_c, 0, 66, 46
2, 10496, Note_on_c, 0, 70, 46
2, 10496, Control_c, 0, 64, 127
2, 10496, Note_on_c, 0, 49, 44
2, 10496, Note_on_c, 0, 54, 44
2, 10496, Note_on_c, 0, 58, 44
2, 10496, Note_on_c, 0, 61, 44
2, 10624, Note_on_c, 0, 77, 43
2, 10626, Note_off_c, 0, 75, 0
2, 10752, Note_on_c, 0, 75, 48
2, 10754, Note_off_c, 0, 77, 0
2, 11136, Note_off_c, 0, 42, 0
2, 11136, Note_off_c, 0, 49, 0
2, 11136, Control_c, 0, 64, 0
2, 11468, Note_off_c, 0, 66, 0
2, 11468, Note_off_c, 0, 70, 0
2, 11520, Note_off_c, 0, 49, 0
2, 11520, Note_off_c, 0, 54, 0
2, 11520, Note_off_c, 0, 58, 0
2, 11520, Note_off_c, 0, 61, 0
2, 11520, Note_on_c, 0, 41, 49
2, 11520, Note_on_c, 0, 49, 49
2, 11603, Note_off_c, 0, 75, 0
2, 11648, Note_on_c, 0, 61, 48
2, 11648, Note_on_c, 0, 73, 48
2, 11648, Note_on_c, 0, 68, 47
2, 11648, Note_on_c, 0, 53, 48
2, 11648, Note_on_c, 0, 56, 48
2, 11776, Note_on_c, 0, 63, 53
2, 11776, Note_on_c, 0, 75, 53
2, 11778, Note_off_c, 0, 61, 0
2, 11778, Note_off_c, 0, 73, 0
2, 11904, Note_on_c, 0, 68, 54
2, 11904, Note_on_c, 0, 73, 54
2, 11904, Note_on_c, 0, 80, 54
2, 11904, Control_c, 0, 64, 127
2, 11904, Note_on_c, 0, 61, 57
2, 11904, Note_on_c, 0, 65, 57
2, 11906, Note_off_c, 0, 63, 0
2, 11906, Note_off_c, 0, 75, 0
2, 11909, Note_off_c, 0, 68, 0
2, 11909, Note_off_c, 0, 53, 0
2, 11909, Note_off_c, 0, 56, 0
2, 12288, Note_off_c, 0, 73, 0
2, 12288, Note_on_c, 0, 65, 48
2, 12288, Note_on_c, 0, 73, 48
2, 12288, Note_on_c, 0, 77, 48
2, 12288, Note_off_c, 0, 41, 0
2, 12288, Note_off_c, 0, 49, 0
2, 12288, Note_off_c, 0, 61, 0
2, 12288, Note_on_c, 0, 56, 48
2, 12288, Note_on_c, 0, 61, 48
2, 12295, Note_off_c, 0, 68, 0
2, 12295, Note_off_c, 0, 80, 0
2, 12295, Note_off_c, 0, 65, 0
2, 12652, Note_off_c, 0, 65, 0
2, 12652, Note_off_c, 0, 73, 0
2, 12652, Note_off_c, 0, 56, 0
2, 12652, Note_off_c, 0, 61, 0
2, 12671, Control_c, 0, 64, 0
2, 12672, Note_on_c, 0, 42, 47
2, 12672, Note_on_c, 0, 49, 47
2, 12774, Note_off_c, 0, 77, 0
2, 12800, Note_on_c, 0, 75, 47
2, 12800, Note_on_c, 0, 66, 47
2, 12800, Note_on_c, 0, 70, 47
2, 12800, Control_c, 0, 64, 127
2, 12800, Note_on_c, 0, 49, 42
2, 12800, Note_on_c, 0, 54, 42
2, 12800, Note_on_c, 0, 58, 42
2, 12800, Note_on_c, 0, 61, 42
2, 12928, Note_on_c, 0, 77, 50
2, 12930, Note_off_c, 0, 75, 0
2, 13056, Note_on_c, 0, 75, 44
2, 13058, Note_off_c, 0, 77, 0
2, 13440, Note_on_c, 0, 73, 45
2, 13440, Note_off_c, 0, 42, 0
2, 13440, Note_off_c, 0, 49, 0
2, 13447, Note_off_c, 0, 75, 0
2, 13567, Control_c, 0, 64, 0
2, 13772, Note_off_c, 0, 66, 0
2, 13772, Note_off_c, 0, 70, 0
2, 13824, Note_off_c, 0, 49, 0
2, 13824, Note_off_c, 0, 54, 0
2, 13824, Note_off_c, 0, 58, 0
2, 13824, Note_off_c, 0, 61, 0
2, 13824, Control_c, 0, 64, 127
2, 13824, Note_on_c, 0, 44, 48
2, 13926, Note_off_c, 0, 73, 0
2, 13952, Note_on_c, 0, 61, 50
2, 13952, Note_on_c, 0, 73, 50
2, 13952, Note_on_c, 0, 68, 46
2, 13952, Note_on_c, 0, 53, 48
2, 13952, Note_on_c, 0, 59, 48
2, 14080, Note_on_c, 0, 63, 57
2, 14080, Note_on_c, 0, 75, 57
2, 14080, Control_c, 0, 64, 0
2, 14082, Note_off_c, 0, 61, 0
2, 14082, Note_off_c, 0, 73, 0
2, 14208, Note_on_c, 0, 70, 65
2, 14208, Note_on_c, 0, 82, 65
2, 14208, Note_on_c, 0, 77, 51
2, 14208, Note_off_c, 0, 53, 0
2, 14208, Note_off_c, 0, 59, 0
2, 14208, Note_on_c, 0, 59, 56
2, 14208, Note_on_c, 0, 61, 56
2, 14208, Note_on_c, 0, 65, 56
2, 14210, Note_off_c, 0, 63, 0
2, 14210, Note_off_c, 0, 75, 0
2, 14213, Note_off_c, 0, 68, 0
2, 14400, Note_on_c, 0, 68, 54
2, 14400, Note_on_c, 0, 80, 54
2, 14400, Control_c, 0, 64, 127
2, 14403, Note_off_c, 0, 70, 0
2, 14403, Note_off_c, 0, 82, 0
2, 14720, Note_off_c, 0, 59, 0
2, 14720, Note_off_c, 0, 61, 0
2, 14720, Note_off_c, 0, 65, 0
2, 14784, Note_on_c, 0, 65, 48
2, 14784, Note_on_c, 0, 77, 48
2, 14791, Note_off_c, 0, 68, 0
2, 14791, Note_off_c, 0, 80, 0
2, 14975, Control_c, 0, 64, 0
2, 14976, Note_off_c, 0, 44, 0
2, 14976, Control_c, 0, 64, 127
2, 14976, Note_on_c, 0, 46, 51
2, 14979, Note_off_c, 0, 65, 0
2, 14991, Note_off_c, 0, 77, 0
2, 15104, Note_on_c, 0, 75, 63
2, 15104, Note_on_c, 0, 65, 41
2, 15104, Note_on_c, 0, 70, 41
2, 15104, Note_on_c, 0, 63, 44
2, 15104, Note_on_c, 0, 53, 46
2, 15104, Note_on_c, 0, 58, 46
2, 15110, Note_off_c, 0, 77, 0
2, 15232, Note_on_c, 0, 77, 70
2, 15232, Control_c, 0, 64, 0
2, 15234, Note_off_c, 0, 75, 0
2, 15360, Note_on_c, 0, 75, 58
2, 15362, Note_off_c, 0, 77, 0
2, 15552, Note_on_c, 0, 73, 53
2, 15552, Note_off_c, 0, 63, 0
2, 15552, Control_c, 0, 64, 127
2, 15552, Note_on_c, 0, 61, 51
2, 15555, Note_off_c, 0, 75, 0
2, 15744, Note_off_c, 0, 46, 0
2, 15936, Note_on_c, 0, 70, 54
2, 15936, Control_c, 0, 64, 0
2, 15943, Note_off_c, 0, 73, 0
2, 16076, Note_off_c, 0, 65, 0
2, 16076, Note_off_c, 0, 70, 0
2, 16118, Note_off_c, 0, 70, 0
2, 16128, Note_off_c, 0, 53, 0
2, 16128, Note_off_c, 0, 58, 0
2, 16128, Note_off_c, 0, 61, 0
2, 16128, Control_c, 0, 64, 127
2, 16128, Note_on_c, 0, 27, 47
2, 16128, Note_on_c, 0, 39, 47
2, 16320, Note_on_c, 0, 77, 51
2, 16320, Note_on_c, 0, 82, 51
2, 16320, Note_on_c, 0, 89, 51
2, 16320, Note_on_c, 0, 65, 52
2, 16320, Note_on_c, 0, 66, 52
2, 16320, Note_on_c, 0, 70, 52
2, 16449, Control_c, 0, 64, 0
2, 16512, Control_c, 0, 64, 127
2, 16640, Note_off_c, 0, 82, 0
2, 16640, Note_on_c, 0, 75, 53
2, 16640, Note_on_c, 0, 82, 53
2, 16640, Note_on_c, 0, 87, 53
2, 16640, Note_off_c, 0, 66, 0
2, 16640, Note_off_c, 0, 70, 0
2, 16640, Note_on_c, 0, 63, 59
2, 16640, Note_on_c, 0, 66, 59
2, 16640, Note_on_c, 0, 70, 59
2, 16646, Note_off_c, 0, 77, 0
2, 16646, Note_off_c, 0, 89, 0
2, 16646, Note_off_c, 0, 65, 0
2, 16768, Note_off_c, 0, 75, 0
2, 16768, Note_off_c, 0, 82, 0
2, 16768, Note_off_c, 0, 87, 0
2, 16768, Note_on_c, 0, 75, 56
2, 16768, Note_on_c, 0, 82, 56
2, 16768, Note_on_c, 0, 87, 56
2, 16768, Note_off_c, 0, 63, 0
2, 16768, Note_off_c, 0, 66, 0
2, 16768, Note_off_c, 0, 70, 0
2, 16768, Note_on_c, 0, 63, 56
2, 16768, Note_on_c, 0, 66, 56
2, 16768, Note_on_c, 0, 70, 56
2, 16816, Control_c, 0, 64, 0
2, 16896, Note_off_c, 0, 75, 0
2, 16896, Note_off_c, 0, 82, 0
2, 16896, Note_off_c, 0, 87, 0
2, 16896, Note_on_c, 0, 75, 55
2, 16896, Note_on_c, 0, 82, 55
2, 16896, Note_on_c, 0, 87, 55
2, 16896, Note_off_c, 0, 27, 0
2, 16896, Note_off_c, 0, 39, 0
2, 16896, Note_off_c, 0, 63, 0
2, 16896, Note_off_c, 0, 66, 0
2, 16896, Note_off_c, 0, 70, 0
2, 16896, Control_c, 0, 64, 127
2, 16896, Note_on_c, 0, 63, 58
2, 16896, Note_on_c, 0, 66, 58
2, 16896, Note_on_c, 0, 70, 58
2, 17024, Note_off_c, 0, 82, 0
2, 17024, Note_on_c, 0, 73, 55
2, 17024, Note_on_c, 0, 82, 55
2, 17024, Note_on_c, 0, 85, 55
2, 17024, Note_off_c, 0, 66, 0
2, 17024, Note_off_c, 0, 70, 0
2, 17024, Note_on_c, 0, 61, 58
2, 17024, Note_on_c, 0, 66, 58
2, 17024, Note_on_c, 0, 70, 58
2, 17026, Note_off_c, 0, 75, 0
2, 17026, Note_off_c, 0, 87, 0
2, 17026, Note_off_c, 0, 63, 0
2, 17152, Note_off_c, 0, 73, 0
2, 17152, Note_off_c, 0, 82, 0
2, 17152, Note_off_c, 0, 85, 0
2, 17152, Note_on_c, 0, 73, 60
2, 17152, Note_on_c, 0, 82, 60
2, 17152, Note_on_c, 0, 85, 60
2, 17152, Control_c, 0, 64, 0
2, 17152, Note_off_c, 0, 61, 0
2, 17152, Note_off_c, 0, 66, 0
2, 17152, Note_off_c, 0, 70, 0
2, 17152, Note_on_c, 0, 61, 59
2, 17152, Note_on_c, 0, 66, 59
2, 17152, Note_on_c, 0, 70, 59
2, 17279, Control_c, 0, 64, 127
2, 17280, Note_off_c, 0, 73, 0
2, 17280, Note_off_c, 0, 82, 0
2, 17280, Note_off_c, 0, 85, 0
2, 17280, Note_on_c, 0, 73, 59
2, 17280, Note_on_c, 0, 82, 59
2, 17280, Note_on_c, 0, 85, 59
2, 17280, Note_off_c, 0, 61, 0
2, 17280, Note_off_c, 0, 66, 0
2, 17280, Note_off_c, 0, 70, 0
2, 17280, Note_on_c, 0, 61, 58
2, 17280, Note_on_c, 0, 66, 58
2, 17280, Note_on_c, 0, 70, 58
2, 17408, Note_off_c, 0, 82, 0
2, 17408, Note_on_c, 0, 72, 54
2, 17408, Note_on_c, 0, 78, 54
2, 17408, Note_on_c, 0, 82, 54
2, 17408, Note_on_c, 0, 84, 54
2, 17408, Note_off_c, 0, 66, 0
2, 17408, Note_off_c, 0, 70, 0
2, 17408, Note_on_c, 0, 60, 58
2, 17408, Note_on_c, 0, 66, 58
2, 17408, Note_on_c, 0, 70, 58
2, 17410, Note_off_c, 0, 73, 0
2, 17410, Note_off_c, 0, 85, 0
2, 17410, Note_off_c, 0, 61, 0
2, 17536, Note_off_c, 0, 72, 0
2, 17536, Note_off_c, 0, 78, 0
2, 17536, Note_off_c, 0, 82, 0
2, 17536, Note_off_c, 0, 84, 0
2, 17536, Note_on_c, 0, 72, 54
2, 17536, Note_on_c, 0, 78, 54
2, 17536, Note_on_c, 0, 82, 54
2, 17536, Note_on_c, 0, 84, 54
2, 17536, Note_off_c, 0, 60, 0
2, 17536, Note_off_c, 0, 66, 0
2, 17536, Note_off_c, 0, 70, 0
2, 17536, Note_on_c, 0, 60, 55
2, 17536, Note_on_c, 0, 66, 55
2, 17536, Note_on_c, 0, 70, 55
2, 17600, Control_c, 0, 64, 0
2, 17664, Note_off_c, 0, 72, 0
2, 17664, Note_off_c, 0, 78, 0
2, 17664, Note_off_c, 0, 82, 0
2, 17664, Note_off_c, 0, 84, 0
2, 17664, Note_on_c, 0, 72, 59
2, 17664, Note_on_c, 0, 78, 59
2, 17664, Note_on_c, 0, 82, 59
2, 17664, Note_on_c, 0, 84, 59
2, 17664, Note_off_c, 0, 60, 0
2, 17664, Note_off_c, 0, 66, 0
2, 17664, Note_off_c, 0, 70, 0
2, 17664, Control_c, 0, 64, 127
2, 17664, Note_on_c, 0, 60, 57
2, 17664, Note_on_c, 0, 66, 57
2, 17664, Note_on_c, 0, 70, 57
2, 17856, Note_off_c, 0, 82, 0
2, 17856, Note_on_c, 0, 73, 62
2, 17856, Note_on_c, 0, 82, 62
2, 17856, Note_on_c, 0, 85, 62
2, 17856, Control_c, 0, 64, 0
2, 17856, Note_off_c, 0, 66, 0
2, 17856, Note_off_c, 0, 70, 0
2, 17856, Note_on_c, 0, 61, 58
2, 17856, Note_on_c, 0, 66, 58
2, 17856, Note_on_c, 0, 70, 58
2, 17859, Note_off_c, 0, 72, 0
2, 17859, Note_off_c, 0, 78, 0
2, 17859, Note_off_c, 0, 84, 0
2, 17859, Note_off_c, 0, 60, 0
2, 18048, Note_off_c, 0, 82, 0
2, 18048, Note_on_c, 0, 70, 56
2, 18048, Note_on_c, 0, 78, 56
2, 18048, Note_on_c, 0, 82, 56
2, 18048, Note_off_c, 0, 61, 0
2, 18048, Note_off_c, 0, 66, 0
2, 18048, Control_c, 0, 64, 127
2, 18048, Note_on_c, 0, 58, 55
2, 18048, Note_on_c, 0, 61, 55
2, 18048, Note_on_c, 0, 66, 55
2, 18051, Note_off_c, 0, 73, 0
2, 18051, Note_off_c, 0, 85, 0
2, 18051, Note_off_c, 0, 70, 0
2, 18412, Note_off_c, 0, 70, 0
2, 18412, Note_off_c, 0, 78, 0
2, 18412, Note_off_c, 0, 82, 0
2, 18412, Note_off_c, 0, 58, 0
2, 18412, Note_off_c, 0, 61, 0
2, 18412, Note_off_c, 0, 66, 0
2, 18431, Control_c, 0, 64, 0
2, 18432, Note_on_c, 0, 46, 45
2, 18432, Control_c, 0, 64, 127
2, 18432, Note_on_c, 0, 27, 48
2, 18432, Note_on_c, 0, 39, 48
2, 18624, Note_on_c, 0, 77, 52
2, 18624, Note_on_c, 0, 82, 52
2, 18624, Note_on_c, 0, 89, 52
2, 18624, Note_on_c, 0, 65, 52
2, 18624, Note_on_c, 0, 66, 52
2, 18624, Note_on_c, 0, 70, 52
2, 18816, Control_c, 0, 64, 0
2, 18944, Note_off_c, 0, 82, 0
2, 18944, Note_on_c, 0, 78, 56
2, 18944, Note_on_c, 0, 82, 56
2, 18944, Note_on_c, 0, 90, 56
2, 18944, Note_off_c, 0, 66, 0
2, 18944, Note_off_c, 0, 70, 0
2, 18944, Note_on_c, 0, 66, 64
2, 18944, Note_on_c, 0, 70, 64
2, 18944, Note_on_c, 0, 75, 64
2, 18950, Note_off_c, 0, 77, 0
2, 18950, Note_off_c, 0, 89, 0
2, 18950, Note_off_c, 0, 65, 0
2, 19072, Note_off_c, 0, 82, 0
2, 19072, Note_on_c, 0, 77, 58
2, 19072, Note_on_c, 0, 82, 58
2, 19072, Note_on_c, 0, 89, 58
2, 19072, Note_off_c, 0, 66, 0
2, 19072, Note_off_c, 0, 70, 0
2, 19072, Note_on_c, 0, 65, 50
2, 19072, Note_on_c, 0, 66, 50
2, 19072, Note_on_c, 0, 70, 50
2, 19074, Note_off_c, 0, 78, 0
2, 19074, Note_off_c, 0, 90, 0
2, 19074, Note_off_c, 0, 75, 0
2, 19200, Note_off_c, 0, 46, 0
2, 19200, Note_off_c, 0, 82, 0
2, 19200, Note_on_c, 0, 75, 55
2, 19200, Note_on_c, 0, 82, 55
2, 19200, Note_on_c, 0, 87, 55
2, 19200, Note_off_c, 0, 27, 0
2, 19200, Note_off_c, 0, 39, 0
2, 19200, Note_off_c, 0, 66, 0
2, 19200, Note_off_c, 0, 70, 0
2, 19200, Control_c, 0, 64, 127
2, 19200, Note_on_c, 0, 63, 49
2, 19200, Note_on_c, 0, 66, 49
2, 19200, Note_on_c, 0, 70, 49
2, 19202, Note_off_c, 0, 77, 0
2, 19202, Note_off_c, 0, 89, 0
2, 19202, Note_off_c, 0, 65, 0
2, 19328, Note_off_c, 0, 82, 0
2, 19328, Note_on_c, 0, 77, 60
2, 19328, Note_on_c, 0, 82, 60
2, 19328, Note_on_c, 0, 89, 60
2, 19328, Note_off_c, 0, 66, 0
2, 19328, Note_off_c, 0, 70, 0
2, 19328, Note_on_c, 0, 65, 56
2, 19328, Note_on_c, 0, 66, 56
2, 19328, Note_on_c, 0, 70, 56
2, 19330, Note_off_c, 0, 75, 0
2, 19330, Note_off_c, 0, 87, 0
2, 19330, Note_off_c, 0, 63, 0
2, 19456, Note_off_c, 0, 82, 0
2, 19456, Note_on_c, 0, 75, 54
2, 19456, Note_on_c, 0, 82, 54
2, 19456, Note_on_c, 0, 87, 54
2, 19456, Control_c, 0, 64, 0
2, 19456, Note_off_c, 0, 66, 0
2, 19456, Note_off_c, 0, 70, 0
2, 19456, Note_on_c, 0, 63, 66
2, 19456, Note_on_c, 0, 66, 66
2, 19456, Note_on_c, 0, 70, 66
2, 19458, Note_off_c, 0, 77, 0
2, 19458, Note_off_c, 0, 89, 0
2, 19458, Note_off_c, 0, 65, 0
2, 19584, Note_off_c, 0, 82, 0
2, 19584, Note_on_c, 0, 73, 51
2, 19584, Note_on_c, 0, 82, 51
2, 19584, Note_on_c, 0, 85, 51
2, 19584, Note_off_c, 0, 66, 0
2, 19584, Note_off_c, 0, 70, 0
2, 19584, Control_c, 0, 64, 127
2, 19584, Note_on_c, 0, 61, 65
2, 19584, Note_on_c, 0, 66, 65
2, 19584, Note_on_c, 0, 70, 65
2, 19586, Note_off_c, 0, 75, 0
2, 19586, Note_off_c, 0, 87, 0
2, 19586, Note_off_c, 0, 63, 0
2, 19712, Note_off_c, 0, 82, 0
2, 19712, Note_on_c, 0, 75, 64
2, 19712, Note_on_c, 0, 82, 64
2, 19712, Note_on_c, 0, 87, 64
2, 19712, Note_off_c, 0, 66, 0
2, 19712, Note_off_c, 0, 70, 0
2, 19712, Note_on_c, 0, 63, 64
2, 19712, Note_on_c, 0, 66, 64
2, 19712, Note_on_c, 0, 70, 64
2, 19714, Note_off_c, 0, 73, 0
2, 19714, Note_off_c, 0, 85, 0
2, 19714, Note_off_c, 0, 61, 0
2, 19840, Note_off_c, 0, 82, 0
2, 19840, Note_on_c, 0, 73, 66
2, 19840, Note_on_c, 0, 82, 66
2, 19840, Note_on_c, 0, 85, 66
2, 19840, Control_c, 0, 64, 0
2, 19840, Note_off_c, 0, 66, 0
2, 19840, Note_off_c, 0, 70, 0
2, 19840, Note_on_c, 0, 61, 62
2, 19840, Note_on_c, 0, 66, 62
2, 19840, Note_on_c, 0, 70, 62
2, 19842, Note_off_c, 0, 75, 0
2, 19842, Note_off_c, 0, 87, 0
2, 19842, Note_off_c, 0, 63, 0
2, 19968, Note_off_c, 0, 82, 0
2, 19968, Note_on_c, 0, 72, 61
2, 19968, Note_on_c, 0, 82, 61
2, 19968, Note_on_c, 0, 84, 61
2, 19968, Note_off_c, 0, 66, 0
2, 19968, Note_off_c, 0, 70, 0
2, 19968, Control_c, 0, 64, 127
2, 19968, Note_on_c, 0, 60, 61
2, 19968, Note_on_c, 0, 66, 61
2, 19968, Note_on_c, 0, 70, 61
2, 19970, Note_off_c, 0, 73, 0
2, 19970, Note_off_c, 0, 85, 0
2, 19970, Note_off_c, 0, 61, 0
2, 20143, Note_off_c, 0, 72, 0
2, 20143, Note_off_c, 0, 82, 0
2, 20143, Note_off_c, 0, 84, 0
2, 20143, Note_on_c, 0, 87, 58
2, 20160, Note_on_c, 0, 73, 58
2, 20160, Note_on_c, 0, 82, 58
2, 20160, Note_on_c, 0, 85, 58
2, 20160, Note_off_c, 0, 87, 0
2, 20160, Note_off_c, 0, 66, 0
2, 20160, Note_off_c, 0, 70, 0
2, 20160, Note_on_c, 0, 61, 61
2, 20160, Note_on_c, 0, 66, 61
2, 20160, Note_on_c, 0, 70, 61
2, 20163, Note_off_c, 0, 60, 0
2, 20342, Note_off_c, 0, 82, 0
2, 20345, Note_off_c, 0, 73, 0
2, 20345, Note_off_c, 0, 85, 0
2, 20352, Note_on_c, 0, 70, 51
2, 20352, Note_on_c, 0, 78, 51
2, 20352, Note_on_c, 0, 82, 51
2, 20352, Control_c, 0, 64, 0
2, 20352, Note_off_c, 0, 66, 0
2, 20352, Note_on_c, 0, 58, 56
2, 20352, Note_on_c, 0, 63, 56
2, 20352, Note_on_c, 0, 66, 56
2, 20355, Note_off_c, 0, 61, 0
2, 20355, Note_off_c, 0, 70, 0
2, 20716, Note_off_c, 0, 58, 0
2, 20716, Note_off_c, 0, 63, 0
2, 20716, Note_off_c, 0, 66, 0
2, 20736, Control_c, 0, 64, 127
2, 20736, Note_on_c, 0, 32, 66
2, 20736, Note_on_c, 0, 44, 66
2, 20838, Note_off_c, 0, 70, 0
2, 20838, Note_off_c, 0, 78, 0
2, 20838, Note_off_c, 0, 82, 0
2, 20864, Note_on_c, 0, 66, 53
2, 20864, Note_on_c, 0, 78, 53
2, 20864, Note_on_c, 0, 54, 57
2, 20992, Note_on_c, 0, 68, 53
2, 20992, Note_on_c, 0, 75, 53
2, 20992, Note_on_c, 0, 80, 53
2, 20992, Control_c, 0, 64, 0
2, 20992, Control_c, 0, 64, 127
2, 20992, Note_on_c, 0, 60, 52
2, 20992, Note_on_c, 0, 63, 52
2, 20992, Note_on_c, 0, 56, 54
2, 20994, Note_off_c, 0, 66, 0
2, 20994, Note_off_c, 0, 78, 0
2, 20994, Note_off_c, 0, 54, 0
2, 21120, Note_on_c, 0, 72, 68
2, 21120, Note_on_c, 0, 84, 68
2, 21120, Control_c, 0, 64, 0
2, 21120, Note_on_c, 0, 60, 70
2, 21122, Note_off_c, 0, 68, 0
2, 21122, Note_off_c, 0, 75, 0
2, 21122, Note_off_c, 0, 80, 0
2, 21122, Note_off_c, 0, 56, 0
2, 21248, Note_on_c, 0, 70, 60
2, 21248, Note_on_c, 0, 78, 60
2, 21248, Note_on_c, 0, 82, 60
2, 21248, Note_off_c, 0, 63, 0
2, 21248, Control_c, 0, 64, 127
2, 21248, Note_on_c, 0, 63, 55
2, 21248, Note_on_c, 0, 66, 55
2, 21248, Note_on_c, 0, 58, 68
2, 21250, Note_off_c, 0, 72, 0
2, 21250, Note_off_c, 0, 84, 0
2, 21250, Note_off_c, 0, 60, 0
2, 21253, Note_off_c, 0, 60, 0
2, 21376, Note_off_c, 0, 78, 0
2, 21376, Note_on_c, 0, 66, 55
2, 21376, Note_on_c, 0, 78, 55
2, 21376, Control_c, 0, 64, 0
2, 21376, Note_on_c, 0, 54, 61
2, 21378, Note_off_c, 0, 70, 0
2, 21378, Note_off_c, 0, 82, 0
2, 21378, Note_off_c, 0, 58, 0
2, 21491, Note_off_c, 0, 63, 0
2, 21491, Note_off_c, 0, 66, 0
2, 21497, Note_off_c, 0, 66, 0
2, 21497, Note_off_c, 0, 78, 0
2, 21497, Note_off_c, 0, 54, 0
2, 21504, Note_off_c, 0, 32, 0
2, 21504, Note_off_c, 0, 44, 0
2, 21504, Control_c, 0, 64, 127
2, 21504, Note_on_c, 0, 33, 57
2, 21504, Note_on_c, 0, 45, 57
2, 21632, Note_on_c, 0, 66, 59
2, 21632, Note_on_c, 0, 72, 59
2, 21632, Note_on_c, 0, 75, 59
2, 21632, Note_on_c, 0, 78, 59
2, 21632, Note_on_c, 0, 54, 55
2, 21632, Note_on_c, 0, 60, 55
2, 21632, Note_on_c, 0, 63, 55
2, 21760, Note_off_c, 0, 66, 0
2, 21760, Note_off_c, 0, 72, 0
2, 21760, Note_off_c, 0, 75, 0
2, 21760, Note_off_c, 0, 78, 0
2, 21760, Note_on_c, 0, 66, 70
2, 21760, Note_on_c, 0, 72, 70
2, 21760, Note_on_c, 0, 75, 70
2, 21760, Note_on_c, 0, 78, 70
2, 21760, Control_c, 0, 64, 0
2, 21760, Note_off_c, 0, 54, 0
2, 21760, Note_off_c, 0, 60, 0
2, 21760, Note_off_c, 0, 63, 0
2, 21760, Note_on_c, 0, 54, 58
2, 21760, Note_on_c, 0, 60, 58
2, 21760, Note_on_c, 0, 63, 58
2, 21888, Note_off_c, 0, 66, 0
2, 21888, Note_off_c, 0, 72, 0
2, 21888, Note_off_c, 0, 75, 0
2, 21888, Note_off_c, 0, 78, 0
2, 21888, Note_on_c, 0, 66, 68
2, 21888, Note_on_c, 0, 72, 68
2, 21888, Note_on_c, 0, 75, 68
2, 21888, Note_on_c, 0, 78, 68
2, 21888, Note_off_c, 0, 54, 0
2, 21888, Note_off_c, 0, 60, 0
2, 21888, Note_off_c, 0, 63, 0
2, 21888, Control_c, 0, 64, 127
2, 21888, Note_on_c, 0, 54, 66
2, 21888, Note_on_c, 0, 60, 66
2, 21888, Note_on_c, 0, 63, 66
2, 22016, Note_off_c, 0, 66, 0
2, 22016, Note_off_c, 0, 72, 0
2, 22016, Note_off_c, 0, 75, 0
2, 22016, Note_off_c, 0, 78, 0
2, 22016, Note_on_c, 0, 66, 76
2, 22016, Note_on_c, 0, 72, 76
2, 22016, Note_on_c, 0, 75, 76
2, 22016, Note_on_c, 0, 78, 76
2, 22016, Note_off_c, 0, 54, 0
2, 22016, Note_off_c, 0, 60, 0
2, 22016, Note_off_c, 0, 63, 0
2, 22016, Note_on_c, 0, 54, 63
2, 22016, Note_on_c, 0, 60, 63
2, 22016, Note_on_c, 0, 63, 63
2, 22144, Note_off_c, 0, 72, 0
2, 22144, Note_off_c, 0, 75, 0
2, 22144, Note_on_c, 0, 68, 74
2, 22144, Note_on_c, 0, 72, 74
2, 22144, Note_on_c, 0, 75, 74
2, 22144, Note_on_c, 0, 80, 74
2, 22144, Control_c, 0, 64, 0
2, 22144, Note_off_c, 0, 60, 0
2, 22144, Note_off_c, 0, 63, 0
2, 22144, Note_on_c, 0, 56, 60
2, 22144, Note_on_c, 0, 60, 60
2, 22144, Note_on_c, 0, 63, 60
2, 22146, Note_off_c, 0, 66, 0
2, 22146, Note_off_c, 0, 78, 0
2, 22146, Note_off_c, 0, 54, 0
2, 22272, Note_off_c, 0, 72, 0
2, 22272, Note_off_c, 0, 75, 0
2, 22272, Note_on_c, 0, 66, 70
2, 22272, Note_on_c, 0, 72, 70
2, 22272, Note_on_c, 0, 75, 70
2, 22272, Note_on_c, 0, 78, 70
2, 22272, Note_off_c, 0, 33, 0
2, 22272, Note_off_c, 0, 45, 0
2, 22272, Note_off_c, 0, 60, 0
2, 22272, Note_off_c, 0, 63, 0
2, 22272, Control_c, 0, 64, 127
2, 22272, Note_on_c, 0, 54, 59
2, 22272, Note_on_c, 0, 60, 59
2, 22272, Note_on_c, 0, 63, 59
2, 22274, Note_off_c, 0, 68, 0
2, 22274, Note_off_c, 0, 80, 0
2, 22274, Note_off_c, 0, 56, 0
2, 22636, Note_off_c, 0, 66, 0
2, 22636, Note_off_c, 0, 72, 0
2, 22636, Note_off_c, 0, 75, 0
2, 22636, Note_off_c, 0, 78, 0
2, 22636, Note_off_c, 0, 54, 0
2, 22636, Note_off_c, 0, 60, 0
2, 22636, Note_off_c, 0, 63, 0
2, 22655, Control_c, 0, 64, 0
2, 22656, Control_c, 0, 64, 127
2, 22656, Note_on_c, 0, 34, 77
2, 22656, Note_on_c, 0, 46, 77
2, 22784, Note_on_c, 0, 66, 62
2, 22784, Note_on_c, 0, 78, 62
2, 22784, Note_on_c, 0, 73, 94
2, 22784, Control_c, 0, 64, 0
2, 22784, Note_on_c, 0, 58, 52
2, 22784, Note_on_c, 0, 61, 52
2, 22784, Note_on_c, 0, 54, 59
2, 22912, Note_on_c, 0, 68, 63
2, 22912, Note_on_c, 0, 80, 63
2, 22912, Note_on_c, 0, 56, 63
2, 22914, Note_off_c, 0, 66, 0
2, 22914, Note_off_c, 0, 78, 0
2, 22914, Note_off_c, 0, 54, 0
2, 23040, Note_on_c, 0, 73, 76
2, 23040, Note_on_c, 0, 85, 76
2, 23040, Note_off_c, 0, 61, 0
2, 23040, Control_c, 0, 64, 127
2, 23040, Note_on_c, 0, 61, 71
2, 23042, Note_off_c, 0, 68, 0
2, 23042, Note_off_c, 0, 80, 0
2, 23042, Note_off_c, 0, 56, 0
2, 23045, Note_off_c, 0, 58, 0
2, 23168, Note_on_c, 0, 70, 70
2, 23168, Note_on_c, 0, 82, 70
2, 23168, Note_on_c, 0, 78, 110
2, 23168, Note_on_c, 0, 61, 65
2, 23168, Note_on_c, 0, 66, 65
2, 23168, Note_on_c, 0, 58, 73
2, 23170, Note_off_c, 0, 73, 0
2, 23170, Note_off_c, 0, 85, 0
2, 23170, Note_off_c, 0, 61, 0
2, 23175, Note_off_c, 0, 73, 0
2, 23296, Note_on_c, 0, 66, 64
2, 23296, Note_on_c, 0, 78, 64
2, 23296, Control_c, 0, 64, 0
2, 23296, Note_on_c, 0, 54, 57
2, 23298, Note_off_c, 0, 70, 0
2, 23298, Note_off_c, 0, 82, 0
2, 23298, Note_off_c, 0, 58, 0
2, 23411, Note_off_c, 0, 78, 0
2, 23411, Note_off_c, 0, 61, 0
2, 23411, Note_off_c, 0, 66, 0
2, 23417, Note_off_c, 0, 66, 0
2, 23417, Note_off_c, 0, 78, 0
2, 23417, Note_off_c, 0, 54, 0
2, 23424, Note_off_c, 0, 34, 0
2, 23424, Note_off_c, 0, 46, 0
2, 23424, Control_c, 0, 64, 127
2, 23424, Note_on_c, 0, 36, 70
2, 23424, Note_on_c, 0, 48, 70
2, 23552, Note_on_c, 0, 66, 68
2, 23552, Note_on_c, 0, 70, 68
2, 23552, Note_on_c, 0, 75, 68
2, 23552, Note_on_c, 0, 78, 68
2, 23552, Note_on_c, 0, 54, 57
2, 23552, Note_on_c, 0, 58, 57
2, 23552, Note_on_c, 0, 63, 57
2, 23680, Note_off_c, 0, 66, 0
2, 23680, Note_off_c, 0, 70, 0
2, 23680, Note_off_c, 0, 75, 0
2, 23680, Note_off_c, 0, 78, 0
2, 23680, Note_on_c, 0, 66, 76
2, 23680, Note_on_c, 0, 70, 76
2, 23680, Note_on_c, 0, 75, 76
2, 23680, Note_on_c, 0, 78, 76
2, 23680, Control_c, 0, 64, 0
2, 23680, Note_off_c, 0, 54, 0
2, 23680, Note_off_c, 0, 58, 0
2, 23680, Note_off_c, 0, 63, 0
2, 23680, Note_on_c, 0, 54, 65
2, 23680, Note_on_c, 0, 58, 65
2, 23680, Note_on_c, 0, 63, 65
2, 23808, Note_off_c, 0, 66, 0
2, 23808, Note_off_c, 0, 70, 0
2, 23808, Note_off_c, 0, 75, 0
2, 23808, Note_off_c, 0, 78, 0
2, 23808, Note_on_c, 0, 66, 82
2, 23808, Note_on_c, 0, 70, 82
2, 23808, Note_on_c, 0, 75, 82
2, 23808, Note_on_c, 0, 78, 82
2, 23808, Note_off_c, 0, 54, 0
2, 23808, Note_off_c, 0, 58, 0
2, 23808, Note_off_c, 0, 63, 0
2, 23808, Control_c, 0, 64, 127
2, 23808, Note_on_c, 0, 54, 64
2, 23808, Note_on_c, 0, 58, 64
2, 23808, Note_on_c, 0, 63, 64
2, 23936, Note_off_c, 0, 66, 0
2, 23936, Note_off_c, 0, 70, 0
2, 23936, Note_off_c, 0, 75, 0
2, 23936, Note_off_c, 0, 78, 0
2, 23936, Note_on_c, 0, 66, 81
2, 23936, Note_on_c, 0, 70, 81
2, 23936, Note_on_c, 0, 75, 81
2, 23936, Note_on_c, 0, 78, 81
2, 23936, Note_off_c, 0, 54, 0
2, 23936, Note_off_c, 0, 58, 0
2, 23936, Note_off_c, 0, 63, 0
2, 23936, Note_on_c, 0, 54, 69
2, 23936, Note_on_c, 0, 58, 69
2, 23936, Note_on_c, 0, 63, 69
2, 24064, Note_on_c, 0, 68, 95
2, 24064, Note_on_c, 0, 72, 95
2, 24064, Note_on_c, 0, 77, 95
2, 24064, Note_on_c, 0, 80, 95
2, 24064, Control_c, 0, 64, 0
2, 24064, Note_on_c, 0, 56, 78
2, 24064, Note_on_c, 0, 60, 78
2, 24064, Note_on_c, 0, 65, 78
2, 24066, Note_off_c, 0, 66, 0
2, 24066, Note_off_c, 0, 70, 0
2, 24066, Note_off_c, 0, 75, 0
2, 24066, Note_off_c, 0, 78, 0
2, 24066, Note_off_c, 0, 54, 0
2, 24066, Note_off_c, 0, 58, 0
2, 24066, Note_off_c, 0, 63, 0
2, 24192, Note_on_c, 0, 66, 73
2, 24192, Note_on_c, 0, 70, 73
2, 24192, Note_on_c, 0, 75, 73
2, 24192, Note_on_c, 0, 78, 73
2, 24192, Note_off_c, 0, 36, 0
2, 24192, Note_off_c, 0, 48, 0
2, 24192, Control_c, 0, 64, 127
2, 24192, Note_on_c, 0, 54, 60
2, 24192, Note_on_c, 0, 58, 60
2, 24192, Note_on_c, 0, 63, 60
2, 24194, Note_off_c, 0, 68, 0
2, 24194, Note_off_c, 0, 72, 0
2, 24194, Note_off_c, 0, 77, 0
2, 24194, Note_off_c, 0, 80, 0
2, 24194, Note_off_c, 0, 56, 0
2, 24194, Note_off_c, 0, 60, 0
2, 24194, Note_off_c, 0, 65, 0
2, 24448, Control_c, 0, 64, 0
2, 24556, Note_off_c, 0, 66, 0
2, 24556, Note_off_c, 0, 70, 0
2, 24556, Note_off_c, 0, 75, 0
2, 24556, Note_off_c, 0, 78, 0
2, 24556, Note_off_c, 0, 54, 0
2, 24556, Note_off_c, 0, 58, 0
2, 24556, Note_off_c, 0, 63, 0
2, 24576, Control_c, 0, 64, 127
2, 24576, Note_on_c, 0, 37, 75
2, 24576, Note_on_c, 0, 49, 75
2, 24704, Note_on_c, 0, 66, 66
2, 24704, Note_on_c, 0, 78, 66
2, 24704, Note_on_c, 0, 70, 65
2, 24704, Note_on_c, 0, 73, 65
2, 24704, Note_on_c, 0, 58, 66
2, 24704, Note_on_c, 0, 61, 66
2, 24704, Note_on_c, 0, 54, 69
2, 24750, Control_c, 0, 64, 0
2, 24832, Note_on_c, 0, 68, 77
2, 24832, Note_on_c, 0, 80, 77
2, 24832, Control_c, 0, 64, 127
2, 24832, Note_on_c, 0, 56, 73
2, 24834, Note_off_c, 0, 66, 0
2, 24834, Note_off_c, 0, 78, 0
2, 24834, Note_off_c, 0, 54, 0
2, 24960, Note_on_c, 0, 75, 87
2, 24960, Note_on_c, 0, 87, 87
2, 24960, Note_on_c, 0, 63, 83
2, 24962, Note_off_c, 0, 68, 0
2, 24962, Note_off_c, 0, 80, 0
2, 24962, Note_off_c, 0, 56, 0
2, 24965, Note_off_c, 0, 58, 0
2, 24965, Note_off_c, 0, 61, 0
2, 25006, Control_c, 0, 64, 0
2, 25088, Note_on_c, 0, 73, 72
2, 25088, Note_on_c, 0, 85, 72
2, 25088, Note_on_c, 0, 78, 81
2, 25088, Note_on_c, 0, 82, 81
2, 25088, Control_c, 0, 64, 127
2, 25088, Note_on_c, 0, 66, 63
2, 25088, Note_on_c, 0, 70, 63
2, 25088, Note_on_c, 0, 61, 80
2, 25090, Note_off_c, 0, 75, 0
2, 25090, Note_off_c, 0, 87, 0
2, 25090, Note_off_c, 0, 63, 0
2, 25095, Note_off_c, 0, 70, 0
2, 25095, Note_off_c, 0, 73, 0
2, 25216, Note_on_c, 0, 70, 67
2, 25216, Note_on_c, 0, 82, 67
2, 25216, Note_on_c, 0, 58, 68
2, 25218, Note_off_c, 0, 73, 0
2, 25218, Note_off_c, 0, 85, 0
2, 25218, Note_off_c, 0, 61, 0
2, 25262, Control_c, 0, 64, 0
2, 25331, Note_off_c, 0, 78, 0
2, 25331, Note_off_c, 0, 82, 0
2, 25331, Note_off_c, 0, 66, 0
2, 25331, Note_off_c, 0, 70, 0
2, 25337, Note_off_c, 0, 70, 0
2, 25337, Note_off_c, 0, 82, 0
2, 25337, Note_off_c, 0, 58, 0
2, 25344, Note_off_c, 0, 37, 0
2, 25344, Note_off_c, 0, 49, 0
2, 25344, Control_c, 0, 64, 127
2, 25344, Note_on_c, 0, 39, 74
2, 25344, Note_on_c, 0, 51, 74
2, 25472, Note_on_c, 0, 70, 63
2, 25472, Note_on_c, 0, 78, 63
2, 25472, Note_on_c, 0, 82, 63
2, 25472, Note_on_c, 0, 58, 64
2, 25472, Note_on_c, 0, 61, 64
2, 25472, Note_on_c, 0, 66, 64
2, 25600, Note_off_c, 0, 70, 0
2, 25600, Note_off_c, 0, 78, 0
2, 25600, Note_off_c, 0, 82, 0
2, 25600, Note_on_c, 0, 70, 77
2, 25600, Note_on_c, 0, 78, 77
2, 25600, Note_on_c, 0, 82, 77
2, 25600, Control_c, 0, 64, 0
2, 25600, Note_off_c, 0, 58, 0
2, 25600, Note_off_c, 0, 61, 0
2, 25600, Note_off_c, 0, 66, 0
2, 25600, Note_on_c, 0, 58, 76
2, 25600, Note_on_c, 0, 61, 76
2, 25600, Note_on_c, 0, 66, 76
2, 25728, Note_off_c, 0, 70, 0
2, 25728, Note_off_c, 0, 78, 0
2, 25728, Note_off_c, 0, 82, 0
2, 25728, Note_on_c, 0, 70, 74
2, 25728, Note_on_c, 0, 78, 74
2, 25728, Note_on_c, 0, 82, 74
2, 25728, Note_off_c, 0, 58, 0
2, 25728, Note_off_c, 0, 61, 0
2, 25728, Note_off_c, 0, 66, 0
2, 25728, Control_c, 0, 64, 127
2, 25728, Note_on_c, 0, 58, 68
2, 25728, Note_on_c, 0, 61, 68
2, 25728, Note_on_c, 0, 66, 68
2, 25856, Note_off_c, 0, 70, 0
2, 25856, Note_off_c, 0, 78, 0
2, 25856, Note_off_c, 0, 82, 0
2, 25856, Note_on_c, 0, 70, 78
2, 25856, Note_on_c, 0, 78, 78
2, 25856, Note_on_c, 0, 82, 78
2, 25856, Note_off_c, 0, 58, 0
2, 25856, Note_off_c, 0, 61, 0
2, 25856, Note_off_c, 0, 66, 0
2, 25856, Note_on_c, 0, 58, 68
2, 25856, Note_on_c, 0, 61, 68
2, 25856, Note_on_c, 0, 66, 68
2, 25984, Note_on_c, 0, 72, 86
2, 25984, Note_on_c, 0, 80, 86
2, 25984, Note_on_c, 0, 84, 86
2, 25984, Control_c, 0, 64, 0
2, 25984, Note_on_c, 0, 60, 73
2, 25984, Note_on_c, 0, 63, 73
2, 25984, Note_on_c, 0, 68, 73
2, 25986, Note_off_c, 0, 70, 0
2, 25986, Note_off_c, 0, 78, 0
2, 25986, Note_off_c, 0, 82, 0
2, 25986, Note_off_c, 0, 58, 0
2, 25986, Note_off_c, 0, 61, 0
2, 25986, Note_off_c, 0, 66, 0
2, 26112, Note_on_c, 0, 70, 76
2, 26112, Note_on_c, 0, 78, 76
2, 26112, Note_on_c, 0, 82, 76
2, 26112, Note_off_c, 0, 39, 0
2, 26112, Note_off_c, 0, 51, 0
2, 26112, Control_c, 0, 64, 127
2, 26112, Note_on_c, 0, 58, 70
2, 26112, Note_on_c, 0, 61, 70
2, 26112, Note_on_c, 0, 66, 70
2, 26114, Note_off_c, 0, 72, 0
2, 26114, Note_off_c, 0, 80, 0
2, 26114, Note_off_c, 0, 84, 0
2, 26114, Note_off_c, 0, 60, 0
2, 26114, Note_off_c, 0, 63, 0
2, 26114, Note_off_c, 0, 68, 0
2, 26240, Note_off_c, 0, 82, 0
2, 26240, Note_on_c, 0, 73, 89
2, 26240, Note_on_c, 0, 82, 89
2, 26240, Note_on_c, 0, 85, 89
2, 26240, Note_off_c, 0, 61, 0
2, 26240, Note_off_c, 0, 66, 0
2, 26240, Note_on_c, 0, 61, 73
2, 26240, Note_on_c, 0, 66, 73
2, 26240, Note_on_c, 0, 70, 73
2, 26242, Note_off_c, 0, 70, 0
2, 26242, Note_off_c, 0, 78, 0
2, 26242, Note_off_c, 0, 58, 0
2, 26368, Note_off_c, 0, 82, 0
2, 26368, Note_on_c, 0, 75, 89
2, 26368, Note_on_c, 0, 82, 89
2, 26368, Note_on_c, 0, 87, 89
2, 26368, Control_c, 0, 64, 0
2, 26368, Note_off_c, 0, 66, 0
2, 26368, Note_off_c, 0, 70, 0
2, 26368, Note_on_c, 0, 63, 73
2, 26368, Note_on_c, 0, 66, 73
2, 26368, Note_on_c, 0, 70, 73
2, 26370, Note_off_c, 0, 73, 0
2, 26370, Note_off_c, 0, 85, 0
2, 26370, Note_off_c, 0, 61, 0
2, 26489, Note_off_c, 0, 75, 0
2, 26489, Note_off_c, 0, 82, 0
2, 26489, Note_off_c, 0, 87, 0
2, 26489, Note_off_c, 0, 63, 0
2, 26489, Note_off_c, 0, 66, 0
2, 26489, Note_off_c, 0, 70, 0
2, 26496, Note_on_c, 0, 80, 78
2, 26496, Control_c, 0, 64, 127
2, 26496, Note_on_c, 0, 65, 107
2, 26527, Note_on_c, 0, 85, 78
2, 26527, Note_on_c, 0, 68, 107
2, 26558, Note_on_c, 0, 92, 78
2, 26558, Note_on_c, 0, 73, 107
2, 26589, Note_on_c, 0, 77, 107
2, 27014, Control_c, 0, 64, 0
2, 27264, Note_off_c, 0, 80, 0
2, 27264, Note_off_c, 0, 85, 0
2, 27264, Note_off_c, 0, 92, 0
2, 27264, Note_on_c, 0, 80, 77
2, 27264, Note_off_c, 0, 68, 0
2, 27264, Note_off_c, 0, 73, 0
2, 27264, Control_c, 0, 64, 127
2, 27264, Note_on_c, 0, 64, 79
2, 27277, Note_off_c, 0, 77, 0
2, 27279, Note_off_c, 0, 65, 0
2, 27293, Note_on_c, 0, 85, 77
2, 27293, Note_on_c, 0, 68, 79
2, 27322, Note_on_c, 0, 92, 77
2, 27322, Note_on_c, 0, 70, 79
2, 27351, Note_on_c, 0, 73, 79
2, 27380, Note_on_c, 0, 76, 79
2, 27647, Control_c, 0, 64, 0
2, 27648, Note_off_c, 0, 80, 0
2, 27648, Note_off_c, 0, 85, 0
2, 27648, Note_off_c, 0, 92, 0
2, 27648, Note_on_c, 0, 80, 69
2, 27648, Note_off_c, 0, 68, 0
2, 27648, Note_off_c, 0, 73, 0
2, 27648, Control_c, 0, 64, 127
2, 27648, Note_on_c, 0, 63, 62
2, 27653, Note_off_c, 0, 76, 0
2, 27654, Note_off_c, 0, 70, 0
2, 27655, Note_off_c, 0, 64, 0
2, 27676, Note_on_c, 0, 85, 69
2, 27676, Note_on_c, 0, 66, 62
2, 27704, Note_on_c, 0, 92, 69
2, 27704, Note_on_c, 0, 68, 62
2, 27732, Note_on_c, 0, 73, 62
2, 27760, Note_on_c, 0, 75, 62
2, 28074, Control_c, 0, 64, 0
2, 28243, Control_c, 0, 64, 127
2, 28377, Note_off_c, 0, 63, 0
2, 28379, Note_off_c, 0, 66, 0
2, 28380, Note_off_c, 0, 68, 0
2, 28381, Note_off_c, 0, 73, 0
2, 28383, Note_off_c, 0, 75, 0
2, 28416, Note_off_c, 0, 80, 0
2, 28416, Note_off_c, 0, 85, 0
2, 28416, Note_off_c, 0, 92, 0
2, 28416, Note_on_c, 0, 68, 59
2, 28416, Note_on_c, 0, 56, 57
2, 28434, Note_on_c, 0, 75, 59
2, 28434, Note_on_c, 0, 63, 52
2, 28452, Note_on_c, 0, 80, 59
2, 28452, Note_on_c, 0, 66, 51
2, 28470, Note_on_c, 0, 72, 51
2, 28627, Control_c, 0, 64, 0
2, 28800, Note_off_c, 0, 68, 0
2, 28800, Note_off_c, 0, 75, 0
2, 28800, Note_off_c, 0, 80, 0
2, 28800, Note_on_c, 0, 65, 34
2, 28800, Note_on_c, 0, 68, 34
2, 28800, Note_off_c, 0, 56, 0
2, 28800, Note_off_c, 0, 63, 0
2, 28800, Note_off_c, 0, 66, 0
2, 28800, Note_off_c, 0, 72, 0
2, 28800, Control_c, 0, 64, 127
2, 28800, Note_on_c, 0, 37, 35
2, 28864, Note_on_c, 0, 44, 40
2, 28928, Note_on_c, 0, 49, 40
2, 28929, Note_off_c, 0, 44, 0
2, 28992, Note_on_c, 0, 53, 42
2, 28993, Note_off_c, 0, 49, 0
2, 29056, Note_on_c, 0, 56, 43
2, 29057, Note_off_c, 0, 53, 0
2, 29120, Control_c, 0, 64, 0
2, 29120, Note_on_c, 0, 61, 52
2, 29121, Note_off_c, 0, 56, 0
2, 29164, Note_off_c, 0, 37, 0
2, 29180, Note_off_c, 0, 61, 0
2, 29184, Control_c, 0, 64, 127
2, 29184, Note_on_c, 0, 41, 36
2, 29248, Note_on_c, 0, 48, 41
2, 29312, Note_on_c, 0, 53, 46
2, 29313, Note_off_c, 0, 48, 0
2, 29376, Note_on_c, 0, 56, 42
2, 29377, Note_off_c, 0, 53, 0
2, 29440, Note_on_c, 0, 60, 49
2, 29441, Note_off_c, 0, 56, 0
2, 29504, Control_c, 0, 64, 0
2, 29504, Note_on_c, 0, 65, 48
2, 29505, Note_off_c, 0, 60, 0
2, 29548, Note_off_c, 0, 41, 0
2, 29564, Note_off_c, 0, 65, 0
2, 29568, Note_off_c, 0, 68, 0
2, 29568, Note_on_c, 0, 68, 60
2, 29568, Note_on_c, 0, 71, 60
2, 29568, Control_c, 0, 64, 127
2, 29568, Note_on_c, 0, 44, 38
2, 29583, Note_off_c, 0, 65, 0
2, 29632, Note_on_c, 0, 52, 42
2, 29696, Note_on_c, 0, 56, 44
2, 29697, Note_off_c, 0, 52, 0
2, 29760, Note_on_c, 0, 59, 45
2, 29761, Note_off_c, 0, 56, 0
2, 29824, Note_on_c, 0, 73, 65
2, 29824, Note_on_c, 0, 64, 51
2, 29825, Note_off_c, 0, 59, 0
2, 29829, Note_off_c, 0, 68, 0
2, 29829, Note_off_c, 0, 71, 0
2, 29888, Control_c, 0, 64, 0
2, 29888, Note_on_c, 0, 68, 48
2, 29889, Note_off_c, 0, 64, 0
2, 29932, Note_off_c, 0, 44, 0
2, 29945, Note_off_c, 0, 73, 0
2, 29948, Note_off_c, 0, 68, 0
2, 29952, Note_on_c, 0, 65, 50
2, 29952, Note_on_c, 0, 68, 50
2, 29952, Control_c, 0, 64, 127
2, 29952, Note_on_c, 0, 37, 38
2, 30016, Note_on_c, 0, 44, 46
2, 30080, Note_on_c, 0, 49, 52
2, 30081, Note_off_c, 0, 44, 0
2, 30144, Note_on_c, 0, 53, 46
2, 30145, Note_off_c, 0, 49, 0
2, 30208, Note_on_c, 0, 56, 52
2, 30209, Note_off_c, 0, 53, 0
2, 30272, Control_c, 0, 64, 0
2, 30272, Note_on_c, 0, 61, 49
2, 30273, Note_off_c, 0, 56, 0
2, 30316, Note_off_c, 0, 37, 0
2, 30332, Note_off_c, 0, 61, 0
2, 30336, Control_c, 0, 64, 127
2, 30336, Note_on_c, 0, 41, 41
2, 30400, Note_on_c, 0, 48, 46
2, 30464, Note_on_c, 0, 53, 50
2, 30465, Note_off_c, 0, 48, 0
2, 30528, Note_on_c, 0, 56, 49
2, 30529, Note_off_c, 0, 53, 0
2, 30592, Note_on_c, 0, 60, 54
2, 30593, Note_off_c, 0, 56, 0
2, 30656, Control_c, 0, 64, 0
2, 30656, Note_on_c, 0, 65, 46
2, 30657, Note_off_c, 0, 60, 0
2, 30700, Note_off_c, 0, 41, 0
2, 30716, Note_off_c, 0, 65, 0
2, 30720, Note_off_c, 0, 68, 0
2, 30720, Note_on_c, 0, 68, 70
2, 30720, Note_on_c, 0, 71, 70
2, 30720, Control_c, 0, 64, 127
2, 30720, Note_on_c, 0, 44, 35
2, 30735, Note_off_c, 0, 65, 0
2, 30784, Note_on_c, 0, 52, 44
2, 30848, Note_on_c, 0, 56, 47
2, 30849, Note_off_c, 0, 52, 0
2, 30912, Note_on_c, 0, 59, 40
2, 30913, Note_off_c, 0, 56, 0
2, 30976, Note_off_c, 0, 68, 0
2, 30976, Note_on_c, 0, 68, 64
2, 30976, Note_on_c, 0, 68, 50
2, 30977, Note_off_c, 0, 59, 0
2, 30981, Note_off_c, 0, 71, 0
2, 31040, Control_c, 0, 64, 0
2, 31040, Note_on_c, 0, 64, 37
2, 31041, Note_off_c, 0, 68, 0
2, 31084, Note_off_c, 0, 44, 0
2, 31097, Note_off_c, 0, 68, 0
2, 31100, Note_off_c, 0, 64, 0
2, 31104, Note_on_c, 0, 65, 75
2, 31104, Note_on_c, 0, 73, 75
2, 31104, Control_c, 0, 64, 127
2, 31104, Note_on_c, 0, 37, 40
2, 31168, Note_on_c, 0, 44, 46
2, 31169, Note_off_c, 0, 37, 0
2, 31232, Note_on_c, 0, 49, 49
2, 31233, Note_off_c, 0, 44, 0
2, 31296, Note_on_c, 0, 53, 52
2, 31297, Note_off_c, 0, 49, 0
2, 31360, Note_on_c, 0, 68, 69
2, 31360, Note_on_c, 0, 75, 69
2, 31360, Note_on_c, 0, 56, 45
2, 31361, Note_off_c, 0, 53, 0
2, 31365, Note_off_c, 0, 65, 0
2, 31365, Note_off_c, 0, 73, 0
2, 31424, Control_c, 0, 64, 0
2, 31424, Note_on_c, 0, 61, 49
2, 31425, Note_off_c, 0, 56, 0
2, 31488, Note_on_c, 0, 73, 69
2, 31488, Note_on_c, 0, 77, 69
2, 31488, Control_c, 0, 64, 127
2, 31488, Note_on_c, 0, 65, 50
2, 31489, Note_off_c, 0, 61, 0
2, 31490, Note_off_c, 0, 68, 0
2, 31490, Note_off_c, 0, 75, 0
2, 31552, Note_on_c, 0, 68, 60
2, 31553, Note_off_c, 0, 65, 0
2, 31616, Note_on_c, 0, 65, 44
2, 31617, Note_off_c, 0, 68, 0
2, 31680, Note_on_c, 0, 61, 40
2, 31681, Note_off_c, 0, 65, 0
2, 31744, Note_on_c, 0, 56, 40
2, 31745, Note_off_c, 0, 61, 0
2, 31808, Control_c, 0, 64, 0
2, 31808, Note_on_c, 0, 53, 41
2, 31809, Note_off_c, 0, 56, 0
2, 31872, Note_off_c, 0, 73, 0
2, 31872, Note_on_c, 0, 65, 59
2, 31872, Note_on_c, 0, 73, 59
2, 31872, Control_c, 0, 64, 127
2, 31872, Note_on_c, 0, 56, 40
2, 31873, Note_off_c, 0, 53, 0
2, 31879, Note_off_c, 0, 77, 0
2, 31936, Note_on_c, 0, 53, 41
2, 31937, Note_off_c, 0, 56, 0
2, 32000, Note_on_c, 0, 49, 41
2, 32001, Note_off_c, 0, 53, 0
2, 32064, Note_on_c, 0, 44, 34
2, 32065, Note_off_c, 0, 49, 0
2, 32128, Note_off_c, 0, 73, 0
2, 32128, Note_on_c, 0, 73, 76
2, 32128, Note_on_c, 0, 77, 76
2, 32128, Note_on_c, 0, 49, 42
2, 32129, Note_off_c, 0, 44, 0
2, 32133, Note_off_c, 0, 65, 0
2, 32192, Control_c, 0, 64, 0
2, 32192, Note_on_c, 0, 44, 41
2, 32193, Note_off_c, 0, 49, 0
2, 32249, Note_off_c, 0, 73, 0
2, 32249, Note_off_c, 0, 77, 0
2, 32252, Note_off_c, 0, 44, 0
2, 32256, Note_on_c, 0, 75, 79
2, 32256, Note_on_c, 0, 79, 79
2, 32256, Note_on_c, 0, 39, 38
2, 32320, Note_on_c, 0, 46, 47
2, 32321, Note_off_c, 0, 39, 0
2, 32384, Note_on_c, 0, 73, 71
2, 32384, Note_on_c, 0, 77, 71
2, 32384, Note_on_c, 0, 51, 44
2, 32385, Note_off_c, 0, 46, 0
2, 32386, Note_off_c, 0, 75, 0
2, 32386, Note_off_c, 0, 79, 0
2, 32448, Note_on_c, 0, 55, 45
2, 32449, Note_off_c, 0, 51, 0
2, 32512, Note_off_c, 0, 73, 0
2, 32512, Note_on_c, 0, 70, 63
2, 32512, Note_on_c, 0, 73, 63
2, 32512, Note_on_c, 0, 58, 41
2, 32513, Note_off_c, 0, 55, 0
2, 32514, Note_off_c, 0, 77, 0
2, 32576, Note_on_c, 0, 63, 50
2, 32577, Note_off_c, 0, 58, 0
2, 32640, Note_off_c, 0, 70, 0
2, 32640, Note_off_c, 0, 73, 0
2, 32640, Note_on_c, 0, 70, 69
2, 32640, Note_on_c, 0, 73, 69
2, 32640, Note_on_c, 0, 67, 45
2, 32640, Control_c, 0, 64, 127
2, 32640, Note_on_c, 0, 67, 47
2, 32641, Note_off_c, 0, 63, 0
2, 32704, Note_on_c, 0, 63, 45
2, 32705, Note_off_c, 0, 67, 0
2, 32763, Note_off_c, 0, 67, 0
2, 32768, Note_on_c, 0, 65, 55
2, 32768, Note_on_c, 0, 58, 38
2, 32769, Note_off_c, 0, 63, 0
2, 32832, Note_on_c, 0, 55, 37
2, 32833, Note_off_c, 0, 58, 0
2, 32896, Note_on_c, 0, 61, 47
2, 32896, Control_c, 0, 64, 0
2, 32896, Note_on_c, 0, 51, 40
2, 32897, Note_off_c, 0, 55, 0
2, 32898, Note_off_c, 0, 65, 0
2, 32960, Note_on_c, 0, 46, 38
2, 32961, Note_off_c, 0, 51, 0
2, 32985, Note_off_c, 0, 70, 0
2, 32985, Note_off_c, 0, 73, 0
2, 33024, Note_off_c, 0, 61, 0
2, 33024, Note_on_c, 0, 61, 58
2, 33024, Control_c, 0, 64, 127
2, 33024, Note_on_c, 0, 39, 38
2, 33025, Note_off_c, 0, 46, 0
2, 33088, Note_on_c, 0, 46, 44
2, 33089, Note_off_c, 0, 39, 0
2, 33152, Note_on_c, 0, 51, 44
2, 33153, Note_off_c, 0, 46, 0
2, 33216, Note_on_c, 0, 58, 55
2, 33216, Note_on_c, 0, 55, 42
2, 33217, Note_off_c, 0, 51, 0
2, 33219, Note_off_c, 0, 61, 0
2, 33280, Note_on_c, 0, 51, 41
2, 33281, Note_off_c, 0, 55, 0
2, 33344, Control_c, 0, 64, 0
2, 33344, Note_on_c, 0, 46, 36
2, 33345, Note_off_c, 0, 51, 0
2, 33398, Note_off_c, 0, 58, 0
2, 33404, Note_off_c, 0, 46, 0
2, 33408, Note_on_c, 0, 70, 53
2, 33408, Control_c, 0, 64, 127
2, 33408, Note_on_c, 0, 44, 50
2, 33472, Note_on_c, 0, 51, 54
2, 33536, Note_on_c, 0, 54, 55
2, 33537, Note_off_c, 0, 51, 0
2, 33600, Note_on_c, 0, 58, 53
2, 33601, Note_off_c, 0, 54, 0
2, 33664, Note_on_c, 0, 60, 55
2, 33665, Note_off_c, 0, 58, 0
2, 33728, Control_c, 0, 64, 0
2, 33728, Note_on_c, 0, 66, 63
2, 33729, Note_off_c, 0, 60, 0
2, 33772, Note_off_c, 0, 44, 0
2, 33788, Note_off_c, 0, 66, 0
2, 33792, Control_c, 0, 64, 127
2, 33792, Note_on_c, 0, 42, 44
2, 33856, Note_on_c, 0, 49, 48
2, 33920, Note_on_c, 0, 54, 51
2, 33921, Note_off_c, 0, 49, 0
2, 33984, Note_on_c, 0, 58, 48
2, 33985, Note_off_c, 0, 54, 0
2, 34048, Note_on_c, 0, 61, 56
2, 34049, Note_off_c, 0, 58, 0
2, 34112, Control_c, 0, 64, 0
2, 34112, Note_on_c, 0, 66, 55
2, 34113, Note_off_c, 0, 61, 0
2, 34156, Note_off_c, 0, 42, 0
2, 34172, Note_off_c, 0, 66, 0
2, 34176, Note_on_c, 0, 72, 76
2, 34176, Control_c, 0, 64, 127
2, 34176, Note_on_c, 0, 41, 51
2, 34191, Note_off_c, 0, 70, 0
2, 34240, Note_on_c, 0, 48, 53
2, 34304, Note_on_c, 0, 53, 58
2, 34305, Note_off_c, 0, 48, 0
2, 34368, Note_on_c, 0, 56, 62
2, 34369, Note_off_c, 0, 53, 0
2, 34432, Note_on_c, 0, 77, 86
2, 34432, Note_on_c, 0, 68, 63
2, 34432, Note_on_c, 0, 60, 67
2, 34433, Note_off_c, 0, 56, 0
2, 34437, Note_off_c, 0, 72, 0
2, 34492, Note_off_c, 0, 68, 0
2, 34492, Note_off_c, 0, 60, 0
2, 34496, Note_on_c, 0, 65, 46
2, 34496, Control_c, 0, 64, 0
2, 34540, Note_off_c, 0, 41, 0
2, 34553, Note_off_c, 0, 77, 0
2, 34560, Note_off_c, 0, 65, 0
2, 34560, Control_c, 0, 64, 127
2, 34560, Note_on_c, 0, 70, 60
2, 34560, Control_c, 0, 64, 127
2, 34560, Note_on_c, 0, 44, 41
2, 34624, Note_on_c, 0, 51, 55
2, 34688, Note_on_c, 0, 54, 57
2, 34689, Note_off_c, 0, 51, 0
2, 34752, Note_on_c, 0, 58, 52
2, 34753, Note_off_c, 0, 54, 0
2, 34816, Control_c, 0, 64, 0
2, 34816, Note_on_c, 0, 60, 56
2, 34817, Note_off_c, 0, 58, 0
2, 34880, Control_c, 0, 64, 0
2, 34880, Note_on_c, 0, 66, 62
2, 34881, Note_off_c, 0, 60, 0
2, 34924, Note_off_c, 0, 44, 0
2, 34940, Note_off_c, 0, 66, 0
2, 34944, Control_c, 0, 64, 127
2, 34944, Note_on_c, 0, 42, 43
2, 35008, Note_on_c, 0, 49, 46
2, 35072, Note_on_c, 0, 54, 48
2, 35073, Note_off_c, 0, 49, 0
2, 35136, Note_on_c, 0, 58, 44
2, 35137, Note_off_c, 0, 54, 0
2, 35200, Note_on_c, 0, 61, 47
2, 35201, Note_off_c, 0, 58, 0
2, 35264, Control_c, 0, 64, 0
2, 35264, Note_on_c, 0, 66, 50
2, 35265, Note_off_c, 0, 61, 0
2, 35308, Note_off_c, 0, 42, 0
2, 35324, Note_off_c, 0, 66, 0
2, 35328, Note_on_c, 0, 72, 72
2, 35328, Control_c, 0, 64, 127
2, 35328, Note_on_c, 0, 41, 49
2, 35343, Note_off_c, 0, 70, 0
2, 35392, Note_on_c, 0, 48, 54
2, 35456, Note_on_c, 0, 53, 59
2, 35457, Note_off_c, 0, 48, 0
2, 35520, Note_on_c, 0, 56, 51
2, 35521, Note_off_c, 0, 53, 0
2, 35584, Note_on_c, 0, 77, 82
2, 35584, Note_on_c, 0, 68, 52
2, 35584, Note_on_c, 0, 60, 59
2, 35585, Note_off_c, 0, 56, 0
2, 35589, Note_off_c, 0, 72, 0
2, 35644, Note_off_c, 0, 68, 0
2, 35644, Note_off_c, 0, 60, 0
2, 35648, Note_on_c, 0, 65, 48
2, 35648, Control_c, 0, 64, 0
2, 35692, Note_off_c, 0, 41, 0
2, 35705, Note_off_c, 0, 77, 0
2, 35712, Note_off_c, 0, 65, 0
2, 35712, Note_on_c, 0, 78, 76
2, 35712, Control_c, 0, 64, 127
2, 35712, Note_on_c, 0, 39, 59
2, 35776, Note_on_c, 0, 46, 64
2, 35840, Note_on_c, 0, 51, 69
2, 35841, Note_off_c, 0, 46, 0
2, 35904, Note_on_c, 0, 54, 67
2, 35905, Note_off_c, 0, 51, 0
2, 35968, Note_on_c, 0, 58, 74
2, 35969, Note_off_c, 0, 54, 0
2, 36032, Control_c, 0, 64, 0
2, 36032, Note_on_c, 0, 63, 62
2, 36033, Note_off_c, 0, 58, 0
2, 36076, Note_off_c, 0, 39, 0
2, 36092, Note_off_c, 0, 63, 0
2, 36096, Control_c, 0, 64, 127
2, 36096, Note_on_c, 0, 66, 66
2, 36110, Note_off_c, 0, 78, 0
2, 36160, Note_on_c, 0, 66, 76
2, 36221, Note_off_c, 0, 66, 0
2, 36224, Note_on_c, 0, 70, 78
2, 36224, Control_c, 0, 64, 0
2, 36288, Note_on_c, 0, 77, 83
2, 36288, Control_c, 0, 64, 127
2, 36288, Note_on_c, 0, 65, 67
2, 36289, Note_off_c, 0, 70, 0
2, 36291, Note_off_c, 0, 66, 0
2, 36352, Note_on_c, 0, 66, 56
2, 36416, Note_on_c, 0, 70, 63
2, 36416, Control_c, 0, 64, 0
2, 36417, Note_off_c, 0, 66, 0
2, 36480, Note_on_c, 0, 74, 80
2, 36480, Control_c, 0, 64, 127
2, 36480, Note_on_c, 0, 62, 53
2, 36481, Note_off_c, 0, 70, 0
2, 36483, Note_off_c, 0, 77, 0
2, 36483, Note_off_c, 0, 65, 0
2, 36544, Note_on_c, 0, 66, 59
2, 36608, Note_on_c, 0, 70, 67
2, 36608, Control_c, 0, 64, 0
2, 36609, Note_off_c, 0, 66, 0
2, 36672, Note_on_c, 0, 75, 87
2, 36672, Control_c, 0, 64, 127
2, 36672, Note_on_c, 0, 63, 54
2, 36673, Note_off_c, 0, 70, 0
2, 36675, Note_off_c, 0, 74, 0
2, 36675, Note_off_c, 0, 62, 0
2, 36736, Note_on_c, 0, 66, 58
2, 36796, Note_off_c, 0, 66, 0
2, 36800, Note_on_c, 0, 70, 75
2, 36800, Control_c, 0, 64, 0
2, 36854, Note_off_c, 0, 75, 0
2, 36854, Note_off_c, 0, 63, 0
2, 36864, Note_off_c, 0, 70, 0
2, 36864, Note_on_c, 0, 82, 104
2, 36864, Control_c, 0, 64, 127
2, 36864, Note_on_c, 0, 62, 58
2, 36928, Note_on_c, 0, 66, 65
2, 36992, Note_on_c, 0, 70, 72
2, 36993, Note_off_c, 0, 66, 0
2, 37056, Note_off_c, 0, 70, 0
2, 37056, Note_on_c, 0, 70, 57
2, 37120, Note_on_c, 0, 78, 66
2, 37121, Note_off_c, 0, 70, 0
2, 37184, Control_c, 0, 64, 0
2, 37184, Note_on_c, 0, 82, 67
2, 37185, Note_off_c, 0, 78, 0
2, 37228, Note_off_c, 0, 62, 0
2, 37244, Note_off_c, 0, 82, 0
2, 37248, Control_c, 0, 64, 127
2, 37248, Note_on_c, 0, 63, 48
2, 37312, Note_on_c, 0, 66, 51
2, 37376, Note_on_c, 0, 70, 54
2, 37377, Note_off_c, 0, 66, 0
2, 37440, Note_off_c, 0, 70, 0
2, 37440, Note_on_c, 0, 70, 53
2, 37504, Note_on_c, 0, 78, 64
2, 37505, Note_off_c, 0, 70, 0
2, 37568, Control_c, 0, 64, 0
2, 37568, Note_on_c, 0, 82, 49
2, 37569, Note_off_c, 0, 78, 0
2, 37612, Note_off_c, 0, 63, 0
2, 37628, Note_off_c, 0, 82, 0
2, 37632, Note_on_c, 0, 80, 100
2, 37632, Control_c, 0, 64, 127
2, 37632, Note_on_c, 0, 60, 44
2, 37632, Note_on_c, 0, 56, 47
2, 37647, Note_off_c, 0, 82, 0
2, 37696, Note_on_c, 0, 64, 48
2, 37697, Note_off_c, 0, 60, 0
2, 37760, Note_on_c, 0, 68, 70
2, 37761, Note_off_c, 0, 64, 0
2, 37824, Note_on_c, 0, 72, 77
2, 37825, Note_off_c, 0, 68, 0
2, 37888, Note_on_c, 0, 76, 70
2, 37889, Note_off_c, 0, 72, 0
2, 37952, Control_c, 0, 64, 0
2, 37952, Note_on_c, 0, 80, 76
2, 37953, Note_off_c, 0, 76, 0
2, 37996, Note_off_c, 0, 80, 0
2, 37996, Note_off_c, 0, 56, 0
2, 38012, Note_off_c, 0, 80, 0
2, 38016, Note_on_c, 0, 77, 78
2, 38016, Note_on_c, 0, 80, 78
2, 38016, Control_c, 0, 64, 127
2, 38016, Note_on_c, 0, 49, 57
2, 38080, Note_on_c, 0, 56, 65
2, 38144, Note_on_c, 0, 61, 68
2, 38145, Note_off_c, 0, 56, 0
2, 38208, Note_on_c, 0, 65, 69
2, 38209, Note_off_c, 0, 61, 0
2, 38272, Note_on_c, 0, 68, 77
2, 38273, Note_off_c, 0, 65, 0
2, 38336, Control_c, 0, 64, 0
2, 38336, Note_on_c, 0, 73, 76
2, 38337, Note_off_c, 0, 68, 0
2, 38380, Note_off_c, 0, 49, 0
2, 38396, Note_off_c, 0, 73, 0
2, 38400, Control_c, 0, 64, 127
2, 38400, Note_on_c, 0, 56, 54
2, 38400, Note_on_c, 0, 53, 52
2, 38464, Note_on_c, 0, 60, 65
2, 38465, Note_off_c, 0, 56, 0
2, 38528, Note_on_c, 0, 65, 75
2, 38529, Note_off_c, 0, 60, 0
2, 38592, Note_on_c, 0, 68, 65
2, 38593, Note_off_c, 0, 65, 0
2, 38656, Note_on_c, 0, 72, 72
2, 38657, Note_off_c, 0, 68, 0
2, 38720, Control_c, 0, 64, 0
2, 38720, Note_on_c, 0, 77, 74
2, 38721, Note_off_c, 0, 72, 0
2, 38764, Note_off_c, 0, 53, 0
2, 38780, Note_off_c, 0, 77, 0
2, 38784, Note_off_c, 0, 80, 0
2, 38784, Note_on_c, 0, 80, 94
2, 38784, Note_on_c, 0, 83, 94
2, 38784, Control_c, 0, 64, 127
2, 38784, Note_on_c, 0, 59, 52
2, 38784, Note_on_c, 0, 56, 50
2, 38799, Note_off_c, 0, 77, 0
2, 38848, Note_on_c, 0, 64, 68
2, 38849, Note_off_c, 0, 59, 0
2, 38912, Note_on_c, 0, 68, 77
2, 38913, Note_off_c, 0, 64, 0
2, 38976, Note_on_c, 0, 71, 72
2, 38977, Note_off_c, 0, 68, 0
2, 39040, Note_on_c, 0, 85, 92
2, 39040, Note_on_c, 0, 76, 80
2, 39041, Note_off_c, 0, 71, 0
2, 39045, Note_off_c, 0, 80, 0
2, 39045, Note_off_c, 0, 83, 0
2, 39104, Control_c, 0, 64, 0
2, 39104, Note_on_c, 0, 80, 72
2, 39105, Note_off_c, 0, 76, 0
2, 39148, Note_off_c, 0, 56, 0
2, 39161, Note_off_c, 0, 85, 0
2, 39164, Note_off_c, 0, 80, 0
2, 39168, Note_on_c, 0, 77, 74
2, 39168, Note_on_c, 0, 80, 74
2, 39168, Control_c, 0, 64, 127
2, 39168, Note_on_c, 0, 49, 52
2, 39232, Note_on_c, 0, 56, 53
2, 39296, Note_on_c, 0, 61, 62
2, 39297, Note_off_c, 0, 56, 0
2, 39360, Note_on_c, 0, 65, 64
2, 39361, Note_off_c, 0, 61, 0
2, 39424, Note_on_c, 0, 68, 68
2, 39425, Note_off_c, 0, 65, 0
2, 39488, Control_c, 0, 64, 0
2, 39488, Note_on_c, 0, 73, 77
2, 39489, Note_off_c, 0, 68, 0
2, 39532, Note_off_c, 0, 49, 0
2, 39548, Note_off_c, 0, 73, 0
2, 39552, Control_c, 0, 64, 127
2, 39552, Note_on_c, 0, 56, 54
2, 39552, Note_on_c, 0, 53, 52
2, 39616, Note_on_c, 0, 60, 64
2, 39617, Note_off_c, 0, 56, 0
2, 39680, Note_on_c, 0, 65, 70
2, 39681, Note_off_c, 0, 60, 0
2, 39744, Note_on_c, 0, 68, 80
2, 39745, Note_off_c, 0, 65, 0
2, 39808, Note_on_c, 0, 72, 68
2, 39809, Note_off_c, 0, 68, 0
2, 39872, Control_c, 0, 64, 0
2, 39872, Note_on_c, 0, 77, 77
2, 39873, Note_off_c, 0, 72, 0
2, 39916, Note_off_c, 0, 53, 0
2, 39932, Note_off_c, 0, 77, 0
2, 39936, Note_off_c, 0, 80, 0
2, 39936, Note_on_c, 0, 80, 87
2, 39936, Note_on_c, 0, 83, 87
2, 39936, Control_c, 0, 64, 127
2, 39936, Note_on_c, 0, 59, 54
2, 39936, Note_on_c, 0, 56, 49
2, 39951, Note_off_c, 0, 77, 0
2, 40000, Note_on_c, 0, 64, 63
2, 40001, Note_off_c, 0, 59, 0
2, 40064, Note_on_c, 0, 68, 71
2, 40065, Note_off_c, 0, 64, 0
2, 40128, Note_on_c, 0, 71, 68
2, 40129, Note_off_c, 0, 68, 0
2, 40192, Note_off_c, 0, 80, 0
2, 40192, Note_on_c, 0, 80, 81
2, 40192, Note_on_c, 0, 80, 86
2, 40193, Note_off_c, 0, 71, 0
2, 40197, Note_off_c, 0, 83, 0
2, 40256, Control_c, 0, 64, 0
2, 40256, Note_on_c, 0, 76, 60
2, 40257, Note_off_c, 0, 80, 0
2, 40300, Note_off_c, 0, 56, 0
2, 40313, Note_off_c, 0, 80, 0
2, 40316, Note_off_c, 0, 76, 0
2, 40320, Note_on_c, 0, 85, 80
2, 40320, Control_c, 0, 64, 127
2, 40320, Note_on_c, 0, 61, 31
2, 40320, Note_on_c, 0, 59, 53
2, 40384, Note_on_c, 0, 64, 59
2, 40385, Note_off_c, 0, 61, 0
2, 40448, Note_on_c, 0, 68, 64
2, 40449, Note_off_c, 0, 64, 0
2, 40512, Note_on_c, 0, 73, 46
2, 40512, Note_on_c, 0, 71, 58
2, 40513, Note_off_c, 0, 68, 0
2, 40576, Note_on_c, 0, 80, 60
2, 40577, Note_off_c, 0, 73, 0
2, 40581, Note_off_c, 0, 85, 0
2, 40640, Note_on_c, 0, 76, 58
2, 40640, Control_c, 0, 64, 0
2, 40684, Note_off_c, 0, 59, 0
2, 40694, Note_off_c, 0, 71, 0
2, 40697, Note_off_c, 0, 80, 0
2, 40704, Note_off_c, 0, 76, 0
2, 40704, Note_on_c, 0, 88, 96
2, 40704, Control_c, 0, 64, 127
2, 40704, Note_on_c, 0, 64, 44
2, 40704, Note_on_c, 0, 61, 59
2, 40768, Note_on_c, 0, 68, 59
2, 40769, Note_off_c, 0, 64, 0
2, 40832, Note_on_c, 0, 71, 65
2, 40833, Note_off_c, 0, 68, 0
2, 40896, Note_on_c, 0, 76, 52
2, 40896, Note_on_c, 0, 73, 65
2, 40897, Note_off_c, 0, 71, 0
2, 40960, Note_on_c, 0, 85, 75
2, 40961, Note_off_c, 0, 76, 0
2, 40965, Note_off_c, 0, 88, 0
2, 41024, Note_on_c, 0, 80, 63
2, 41024, Control_c, 0, 64, 0
2, 41068, Note_off_c, 0, 61, 0
2, 41078, Note_off_c, 0, 73, 0
2, 41081, Note_off_c, 0, 85, 0
2, 41088, Note_off_c, 0, 80, 0
2, 41088, Note_on_c, 0, 92, 100
2, 41088, Control_c, 0, 64, 127
2, 41088, Note_on_c, 0, 68, 52
2, 41088, Note_on_c, 0, 64, 64
2, 41152, Note_on_c, 0, 71, 59
2, 41153, Note_off_c, 0, 68, 0
2, 41216, Note_on_c, 0, 73, 63
2, 41217, Note_off_c, 0, 71, 0
2, 41280, Note_on_c, 0, 80, 56
2, 41280, Note_on_c, 0, 76, 64
2, 41281, Note_off_c, 0, 73, 0
2, 41344, Note_on_c, 0, 88, 94
2, 41345, Note_off_c, 0, 80, 0
2, 41349, Note_off_c, 0, 92, 0
2, 41408, Note_on_c, 0, 83, 64
2, 41408, Control_c, 0, 64, 0
2, 41452, Note_off_c, 0, 64, 0
2, 41462, Note_off_c, 0, 76, 0
2, 41465, Note_off_c, 0, 88, 0
2, 41472, Note_off_c, 0, 83, 0
2, 41472, Note_on_c, 0, 92, 92
2, 41472, Control_c, 0, 64, 127
2, 41472, Note_on_c, 0, 68, 46
2, 41536, Note_on_c, 0, 69, 47
2, 41600, Note_on_c, 0, 73, 56
2, 41601, Note_off_c, 0, 69, 0
2, 41664, Note_on_c, 0, 80, 55
2, 41665, Note_off_c, 0, 73, 0
2, 41728, Note_on_c, 0, 85, 63
2, 41729, Note_off_c, 0, 80, 0
2, 41792, Control_c, 0, 64, 0
2, 41792, Note_on_c, 0, 81, 43
2, 41793, Note_off_c, 0, 85, 0
2, 41836, Note_off_c, 0, 68, 0
2, 41852, Note_off_c, 0, 81, 0
2, 41856, Note_on_c, 0, 90, 94
2, 41856, Control_c, 0, 64, 127
2, 41856, Note_on_c, 0, 66, 46
2, 41863, Note_off_c, 0, 92, 0
2, 41920, Note_on_c, 0, 69, 46
2, 41984, Note_on_c, 0, 73, 53
2, 41985, Note_off_c, 0, 69, 0
2, 42048, Note_on_c, 0, 78, 59
2, 42049, Note_off_c, 0, 73, 0
2, 42112, Note_on_c, 0, 85, 70
2, 42113, Note_off_c, 0, 78, 0
2, 42176, Control_c, 0, 64, 0
2, 42176, Note_on_c, 0, 81, 36
2, 42177, Note_off_c, 0, 85, 0
2, 42220, Note_off_c, 0, 66, 0
2, 42236, Note_off_c, 0, 81, 0
2, 42240, Control_c, 0, 64, 127
2, 42240, Note_on_c, 0, 66, 50
2, 42240, Note_on_c, 0, 65, 63
2, 42304, Note_on_c, 0, 69, 53
2, 42305, Note_off_c, 0, 66, 0
2, 42368, Note_on_c, 0, 73, 72
2, 42369, Note_off_c, 0, 69, 0
2, 42432, Note_on_c, 0, 78, 84
2, 42433, Note_off_c, 0, 73, 0
2, 42496, Note_on_c, 0, 85, 76
2, 42497, Note_off_c, 0, 78, 0
2, 42560, Control_c, 0, 64, 0
2, 42560, Note_on_c, 0, 81, 70
2, 42561, Note_off_c, 0, 85, 0
2, 42585, Note_off_c, 0, 90, 0
2, 42604, Note_off_c, 0, 65, 0
2, 42620, Note_off_c, 0, 81, 0
2, 42624, Note_on_c, 0, 90, 83
2, 42624, Control_c, 0, 64, 127
2, 42624, Note_on_c, 0, 66, 43
2, 42624, Note_on_c, 0, 64, 56
2, 42688, Note_on_c, 0, 69, 61
2, 42689, Note_off_c, 0, 66, 0
2, 42752, Note_on_c, 0, 73, 68
2, 42753, Note_off_c, 0, 69, 0
2, 42816, Note_on_c, 0, 78, 72
2, 42817, Note_off_c, 0, 73, 0
2, 42880, Note_on_c, 0, 85, 69
2, 42881, Note_off_c, 0, 78, 0
2, 42944, Control_c, 0, 64, 0
2, 42944, Note_on_c, 0, 81, 68
2, 42945, Note_off_c, 0, 85, 0
2, 42988, Note_off_c, 0, 64, 0
2, 43004, Note_off_c, 0, 81, 0
2, 43008, Control_c, 0, 64, 127
2, 43008, Note_on_c, 0, 66, 41
2, 43008, Note_on_c, 0, 63, 57
2, 43072, Note_on_c, 0, 69, 63
2, 43073, Note_off_c, 0, 66, 0
2, 43136, Note_on_c, 0, 73, 69
2, 43137, Note_off_c, 0, 69, 0
2, 43200, Note_on_c, 0, 78, 66
2, 43201, Note_off_c, 0, 73, 0
2, 43264, Note_on_c, 0, 85, 74
2, 43265, Note_off_c, 0, 78, 0
2, 43328, Control_c, 0, 64, 0
2, 43328, Note_on_c, 0, 81, 74
2, 43329, Note_off_c, 0, 85, 0
2, 43372, Note_off_c, 0, 63, 0
2, 43388, Note_off_c, 0, 81, 0
2, 43392, Note_on_c, 0, 93, 99
2, 43392, Control_c, 0, 64, 127
2, 43392, Note_on_c, 0, 64, 47
2, 43392, Note_on_c, 0, 61, 53
2, 43407, Note_off_c, 0, 90, 0
2, 43456, Note_on_c, 0, 69, 66
2, 43457, Note_off_c, 0, 64, 0
2, 43520, Note_on_c, 0, 73, 75
2, 43521, Note_off_c, 0, 69, 0
2, 43584, Note_on_c, 0, 76, 69
2, 43585, Note_off_c, 0, 73, 0
2, 43648, Note_on_c, 0, 97, 91
2, 43648, Note_on_c, 0, 97, 91
2, 43649, Note_off_c, 0, 76, 0
2, 43653, Note_off_c, 0, 93, 0
2, 43712, Control_c, 0, 64, 0
2, 43712, Note_on_c, 0, 85, 46
2, 43713, Note_off_c, 0, 97, 0
2, 43756, Note_off_c, 0, 61, 0
2, 43769, Note_off_c, 0, 97, 0
2, 43772, Note_off_c, 0, 85, 0
2, 43776, Note_on_c, 0, 78, 74
2, 43776, Control_c, 0, 64, 127
2, 43776, Note_on_c, 0, 59, 50
2, 43840, Note_on_c, 0, 63, 71
2, 43904, Note_off_c, 0, 63, 0
2, 43904, Note_on_c, 0, 66, 65
2, 43968, Note_off_c, 0, 66, 0
2, 43968, Note_on_c, 0, 66, 63
2, 44032, Note_off_c, 0, 66, 0
2, 44032, Note_on_c, 0, 73, 72
2, 44096, Control_c, 0, 64, 0
2, 44096, Note_off_c, 0, 73, 0
2, 44096, Note_on_c, 0, 69, 55
2, 44160, Note_off_c, 0, 59, 0
2, 44160, Note_off_c, 0, 69, 0
2, 44160, Control_c, 0, 64, 127
2, 44160, Note_on_c, 0, 57, 53
2, 44224, Note_on_c, 0, 61, 74
2, 44288, Note_off_c, 0, 61, 0
2, 44288, Note_on_c, 0, 64, 64
2, 44352, Note_off_c, 0, 64, 0
2, 44352, Note_on_c, 0, 66, 67
2, 44416, Note_off_c, 0, 66, 0
2, 44416, Note_on_c, 0, 73, 74
2, 44480, Control_c, 0, 64, 0
2, 44480, Note_off_c, 0, 73, 0
2, 44480, Note_on_c, 0, 69, 58
2, 44544, Note_on_c, 0, 81, 97
2, 44544, Note_off_c, 0, 57, 0
2, 44544, Note_off_c, 0, 69, 0
2, 44544, Control_c, 0, 64, 127
2, 44544, Note_on_c, 0, 56, 54
2, 44559, Note_off_c, 0, 78, 0
2, 44608, Note_on_c, 0, 61, 67
2, 44672, Note_off_c, 0, 61, 0
2, 44672, Note_on_c, 0, 64, 65
2, 44736, Note_off_c, 0, 64, 0
2, 44736, Note_on_c, 0, 69, 72
2, 44800, Note_on_c, 0, 85, 107
2, 44800, Note_off_c, 0, 69, 0
2, 44800, Note_on_c, 0, 76, 73
2, 44805, Note_off_c, 0, 81, 0
2, 44864, Control_c, 0, 64, 0
2, 44864, Note_off_c, 0, 76, 0
2, 44864, Note_on_c, 0, 81, 73
2, 44921, Note_off_c, 0, 85, 0
2, 44928, Note_on_c, 0, 85, 111
2, 44928, Note_on_c, 0, 88, 111
2, 44928, Note_off_c, 0, 56, 0
2, 44928, Note_off_c, 0, 81, 0
2, 44928, Control_c, 0, 64, 127
2, 44928, Note_on_c, 0, 54, 58
2, 44992, Note_on_c, 0, 61, 69
2, 45056, Note_off_c, 0, 85, 0
2, 45056, Note_off_c, 0, 88, 0
2, 45056, Note_on_c, 0, 83, 95
2, 45056, Note_on_c, 0, 87, 95
2, 45056, Note_on_c, 0, 64, 74
2, 45057, Note_off_c, 0, 61, 0
2, 45120, Note_on_c, 0, 66, 69
2, 45121, Note_off_c, 0, 64, 0
2, 45184, Note_off_c, 0, 83, 0
2, 45184, Note_off_c, 0, 87, 0
2, 45184, Note_on_c, 0, 81, 89
2, 45184, Note_on_c, 0, 85, 89
2, 45184, Note_on_c, 0, 69, 78
2, 45185, Note_off_c, 0, 66, 0
2, 45248, Control_c, 0, 64, 0
2, 45248, Note_on_c, 0, 73, 67
2, 45249, Note_off_c, 0, 69, 0
2, 45312, Note_off_c, 0, 81, 0
2, 45312, Note_off_c, 0, 85, 0
2, 45312, Note_on_c, 0, 80, 84
2, 45312, Note_on_c, 0, 83, 84
2, 45312, Control_c, 0, 64, 127
2, 45312, Note_on_c, 0, 76, 76
2, 45313, Note_off_c, 0, 73, 0
2, 45376, Note_on_c, 0, 78, 66
2, 45377, Note_off_c, 0, 76, 0
2, 45440, Note_on_c, 0, 76, 63
2, 45441, Note_off_c, 0, 78, 0
2, 45504, Note_off_c, 0, 80, 0
2, 45504, Note_off_c, 0, 83, 0
2, 45504, Note_on_c, 0, 78, 77
2, 45504, Note_on_c, 0, 81, 77
2, 45504, Note_on_c, 0, 73, 56
2, 45505, Note_off_c, 0, 76, 0
2, 45568, Note_on_c, 0, 69, 47
2, 45569, Note_off_c, 0, 73, 0
2, 45632, Control_c, 0, 64, 0
2, 45632, Note_on_c, 0, 66, 56
2, 45633, Note_off_c, 0, 69, 0
2, 45692, Note_off_c, 0, 66, 0
2, 45696, Control_c, 0, 64, 127
2, 45696, Note_on_c, 0, 64, 54
2, 45760, Note_off_c, 0, 64, 0
2, 45760, Note_on_c, 0, 66, 61
2, 45824, Note_off_c, 0, 78, 0
2, 45824, Note_off_c, 0, 81, 0
2, 45824, Note_on_c, 0, 76, 69
2, 45824, Note_on_c, 0, 80, 69
2, 45824, Note_off_c, 0, 66, 0
2, 45824, Note_on_c, 0, 64, 57
2, 45888, Note_off_c, 0, 64, 0
2, 45888, Note_on_c, 0, 61, 53
2, 45952, Note_off_c, 0, 76, 0
2, 45952, Note_off_c, 0, 80, 0
2, 45952, Note_on_c, 0, 75, 70
2, 45952, Note_on_c, 0, 78, 70
2, 45952, Note_off_c, 0, 61, 0
2, 45952, Note_on_c, 0, 57, 57
2, 46016, Control_c, 0, 64, 0
2, 46016, Note_off_c, 0, 57, 0
2, 46016, Note_on_c, 0, 54, 58
2, 46080, Note_off_c, 0, 75, 0
2, 46080, Note_off_c, 0, 78, 0
2, 46080, Note_on_c, 0, 73, 66
2, 46080, Note_on_c, 0, 76, 66
2, 46080, Note_off_c, 0, 54, 0
2, 46080, Note_off_c, 0, 54, 0
2, 46080, Control_c, 0, 64, 127
2, 46080, Note_on_c, 0, 42, 41
2, 46144, Note_on_c, 0, 49, 47
2, 46145, Note_off_c, 0, 42, 0
2, 46208, Note_off_c, 0, 73, 0
2, 46208, Note_off_c, 0, 76, 0
2, 46208, Note_on_c, 0, 71, 62
2, 46208, Note_on_c, 0, 75, 62
2, 46208, Note_on_c, 0, 52, 56
2, 46209, Note_off_c, 0, 49, 0
2, 46272, Note_on_c, 0, 54, 59
2, 46273, Note_off_c, 0, 52, 0
2, 46336, Note_off_c, 0, 71, 0
2, 46336, Note_off_c, 0, 75, 0
2, 46336, Note_on_c, 0, 69, 64
2, 46336, Note_on_c, 0, 73, 64
2, 46336, Control_c, 0, 64, 0
2, 46336, Note_on_c, 0, 57, 56
2, 46337, Note_off_c, 0, 54, 0
2, 46400, Note_on_c, 0, 61, 61
2, 46401, Note_off_c, 0, 57, 0
2, 46464, Note_off_c, 0, 69, 0
2, 46464, Note_off_c, 0, 73, 0
2, 46464, Note_on_c, 0, 68, 60
2, 46464, Note_on_c, 0, 71, 60
2, 46464, Control_c, 0, 64, 127
2, 46464, Note_on_c, 0, 64, 55
2, 46465, Note_off_c, 0, 61, 0
2, 46528, Note_on_c, 0, 61, 51
2, 46529, Note_off_c, 0, 64, 0
2, 46592, Note_off_c, 0, 68, 0
2, 46592, Note_off_c, 0, 71, 0
2, 46592, Note_on_c, 0, 66, 65
2, 46592, Note_on_c, 0, 69, 65
2, 46592, Note_on_c, 0, 57, 50
2, 46593, Note_off_c, 0, 61, 0
2, 46656, Note_on_c, 0, 54, 46
2, 46657, Note_off_c, 0, 57, 0
2, 46720, Note_off_c, 0, 66, 0
2, 46720, Note_off_c, 0, 69, 0
2, 46720, Note_on_c, 0, 64, 61
2, 46720, Note_on_c, 0, 68, 61
2, 46720, Control_c, 0, 64, 0
2, 46720, Note_on_c, 0, 52, 48
2, 46721, Note_off_c, 0, 54, 0
2, 46784, Note_on_c, 0, 49, 51
2, 46785, Note_off_c, 0, 52, 0
2, 46844, Note_off_c, 0, 49, 0
2, 46848, Note_on_c, 0, 57, 50
2, 46848, Control_c, 0, 64, 127
2, 46848, Note_on_c, 0, 42, 42
2, 46912, Note_on_c, 0, 49, 46
2, 46913, Note_off_c, 0, 42, 0
2, 46976, Note_off_c, 0, 64, 0
2, 46976, Note_off_c, 0, 68, 0
2, 46976, Note_on_c, 0, 63, 59
2, 46976, Note_on_c, 0, 66, 59
2, 46976, Note_on_c, 0, 42, 47
2, 46977, Note_off_c, 0, 49, 0
2, 47040, Note_on_c, 0, 49, 52
2, 47041, Note_off_c, 0, 42, 0
2, 47104, Note_off_c, 0, 63, 0
2, 47104, Note_off_c, 0, 66, 0
2, 47104, Note_on_c, 0, 61, 58
2, 47104, Note_on_c, 0, 64, 58
2, 47104, Control_c, 0, 64, 0
2, 47104, Note_on_c, 0, 42, 47
2, 47105, Note_off_c, 0, 49, 0
2, 47168, Note_on_c, 0, 49, 50
2, 47169, Note_off_c, 0, 42, 0
2, 47228, Note_off_c, 0, 49, 0
2, 47232, Note_off_c, 0, 57, 0
2, 47232, Note_off_c, 0, 61, 0
2, 47232, Note_off_c, 0, 64, 0
2, 47232, Note_on_c, 0, 61, 59
2, 47232, Note_on_c, 0, 63, 59
2, 47232, Note_on_c, 0, 54, 61
2, 47232, Control_c, 0, 64, 127
2, 47232, Note_on_c, 0, 44, 48
2, 47296, Note_on_c, 0, 51, 57
2, 47297, Note_off_c, 0, 44, 0
2, 47360, Note_on_c, 0, 44, 50
2, 47361, Note_off_c, 0, 51, 0
2, 47424, Note_on_c, 0, 51, 55
2, 47425, Note_off_c, 0, 44, 0
2, 47488, Note_on_c, 0, 56, 58
2, 47488, Note_on_c, 0, 44, 46
2, 47489, Note_off_c, 0, 51, 0
2, 47498, Note_off_c, 0, 54, 0
2, 47552, Control_c, 0, 64, 0
2, 47552, Note_on_c, 0, 51, 51
2, 47553, Note_off_c, 0, 44, 0
2, 47616, Note_on_c, 0, 58, 60
2, 47616, Control_c, 0, 64, 127
2, 47616, Note_on_c, 0, 44, 50
2, 47617, Note_off_c, 0, 51, 0
2, 47620, Note_off_c, 0, 56, 0
2, 47680, Note_on_c, 0, 51, 46
2, 47681, Note_off_c, 0, 44, 0
2, 47744, Note_on_c, 0, 44, 50
2, 47745, Note_off_c, 0, 51, 0
2, 47808, Note_on_c, 0, 51, 59
2, 47809, Note_off_c, 0, 44, 0
2, 47872, Note_on_c, 0, 61, 64
2, 47872, Note_on_c, 0, 44, 46
2, 47873, Note_off_c, 0, 51, 0
2, 47882, Note_off_c, 0, 58, 0
2, 47936, Control_c, 0, 64, 0
2, 47936, Note_on_c, 0, 51, 49
2, 47937, Note_off_c, 0, 44, 0
2, 48000, Note_off_c, 0, 63, 0
2, 48000, Note_on_c, 0, 63, 64
2, 48000, Note_on_c, 0, 66, 64
2, 48000, Note_on_c, 0, 60, 59
2, 48000, Control_c, 0, 64, 127
2, 48000, Note_on_c, 0, 44, 44
2, 48001, Note_off_c, 0, 51, 0
2, 48004, Note_off_c, 0, 61, 0
2, 48030, Note_off_c, 0, 61, 0
2, 48064, Note_on_c, 0, 51, 46
2, 48065, Note_off_c, 0, 44, 0
2, 48128, Note_on_c, 0, 44, 49
2, 48129, Note_off_c, 0, 51, 0
2, 48192, Note_on_c, 0, 51, 50
2, 48193, Note_off_c, 0, 44, 0
2, 48243, Note_off_c, 0, 63, 0
2, 48243, Note_off_c, 0, 66, 0
2, 48256, Note_on_c, 0, 63, 64
2, 48256, Note_on_c, 0, 66, 64
2, 48256, Note_on_c, 0, 70, 64
2, 48256, Note_on_c, 0, 44, 48
2, 48257, Note_off_c, 0, 51, 0
2, 48320, Note_on_c, 0, 51, 49
2, 48321, Note_off_c, 0, 44, 0
2, 48345, Note_off_c, 0, 60, 0
2, 48377, Note_off_c, 0, 63, 0
2, 48377, Note_off_c, 0, 66, 0
2, 48377, Note_off_c, 0, 70, 0
2, 48383, Control_c, 0, 64, 0
2, 48384, Note_on_c, 0, 61, 47
2, 48384, Note_on_c, 0, 63, 47
2, 48384, Note_on_c, 0, 54, 52
2, 48384, Note_on_c, 0, 44, 42
2, 48385, Note_off_c, 0, 51, 0
2, 48448, Note_on_c, 0, 51, 49
2, 48449, Note_off_c, 0, 44, 0
2, 48512, Note_on_c, 0, 44, 45
2, 48513, Note_off_c, 0, 51, 0
2, 48576, Note_on_c, 0, 51, 47
2, 48577, Note_off_c, 0, 44, 0
2, 48640, Note_on_c, 0, 56, 54
2, 48640, Note_on_c, 0, 44, 48
2, 48641, Note_off_c, 0, 51, 0
2, 48650, Note_off_c, 0, 54, 0
2, 48704, Note_on_c, 0, 51, 50
2, 48705, Note_off_c, 0, 44, 0
2, 48768, Note_on_c, 0, 58, 62
2, 48768, Note_on_c, 0, 44, 48
2, 48769, Note_off_c, 0, 51, 0
2, 48772, Note_off_c, 0, 56, 0
2, 48832, Note_on_c, 0, 51, 54
2, 48833, Note_off_c, 0, 44, 0
2, 48896, Note_on_c, 0, 44, 44
2, 48897, Note_off_c, 0, 51, 0
2, 48960, Note_on_c, 0, 51, 51
2, 48961, Note_off_c, 0, 44, 0
2, 49024, Note_on_c, 0, 61, 65
2, 49024, Note_on_c, 0, 44, 49
2, 49025, Note_off_c, 0, 51, 0
2, 49034, Note_off_c, 0, 58, 0
2, 49088, Note_on_c, 0, 51, 50
2, 49089, Note_off_c, 0, 44, 0
2, 49152, Note_off_c, 0, 63, 0
2, 49152, Note_on_c, 0, 63, 50
2, 49152, Note_on_c, 0, 66, 50
2, 49152, Note_on_c, 0, 60, 63
2, 49152, Note_on_c, 0, 44, 52
2, 49153, Note_off_c, 0, 51, 0
2, 49156, Note_off_c, 0, 61, 0
2, 49182, Note_off_c, 0, 61, 0
2, 49216, Note_on_c, 0, 51, 56
2, 49217, Note_off_c, 0, 44, 0
2, 49280, Note_on_c, 0, 44, 47
2, 49281, Note_off_c, 0, 51, 0
2, 49344, Note_on_c, 0, 51, 48
2, 49345, Note_off_c, 0, 44, 0
2, 49395, Note_off_c, 0, 63, 0
2, 49395, Note_off_c, 0, 66, 0
2, 49408, Note_on_c, 0, 63, 70
2, 49408, Note_on_c, 0, 66, 70
2, 49408, Note_on_c, 0, 70, 70
2, 49408, Note_on_c, 0, 44, 49
2, 49409, Note_off_c, 0, 51, 0
2, 49472, Note_on_c, 0, 51, 48
2, 49473, Note_off_c, 0, 44, 0
2, 49497, Note_off_c, 0, 60, 0
2, 49529, Note_off_c, 0, 63, 0
2, 49532, Note_off_c, 0, 51, 0
2, 49536, Note_on_c, 0, 61, 51
2, 49536, Note_on_c, 0, 44, 59
2, 49600, Note_on_c, 0, 39, 56
2, 49601, Note_off_c, 0, 44, 0
2, 49651, Note_off_c, 0, 66, 0
2, 49651, Note_off_c, 0, 70, 0
2, 49664, Note_on_c, 0, 68, 72
2, 49664, Note_on_c, 0, 72, 72
2, 49664, Note_on_c, 0, 77, 72
2, 49664, Note_on_c, 0, 44, 64
2, 49665, Note_off_c, 0, 39, 0
2, 49666, Note_off_c, 0, 61, 0
2, 49728, Note_on_c, 0, 51, 68
2, 49729, Note_off_c, 0, 44, 0
2, 49792, Note_on_c, 0, 66, 68
2, 49792, Note_on_c, 0, 70, 68
2, 49792, Note_on_c, 0, 75, 68
2, 49792, Note_on_c, 0, 44, 57
2, 49793, Note_off_c, 0, 51, 0
2, 49794, Note_off_c, 0, 68, 0
2, 49794, Note_off_c, 0, 72, 0
2, 49794, Note_off_c, 0, 77, 0
2, 49856, Note_on_c, 0, 51, 60
2, 49857, Note_off_c, 0, 44, 0
2, 49920, Note_off_c, 0, 66, 0
2, 49920, Note_off_c, 0, 70, 0
2, 49920, Note_on_c, 0, 66, 54
2, 49920, Note_on_c, 0, 70, 54
2, 49920, Note_on_c, 0, 61, 52
2, 49920, Note_on_c, 0, 56, 65
2, 49921, Note_off_c, 0, 51, 0
2, 49922, Note_off_c, 0, 75, 0
2, 49984, Note_on_c, 0, 51, 58
2, 49985, Note_off_c, 0, 56, 0
2, 50048, Note_on_c, 0, 58, 49
2, 50048, Note_on_c, 0, 56, 67
2, 50049, Note_off_c, 0, 51, 0
2, 50050, Note_off_c, 0, 61, 0
2, 50112, Note_on_c, 0, 63, 77
2, 50113, Note_off_c, 0, 56, 0
2, 50176, Note_on_c, 0, 61, 51
2, 50176, Note_on_c, 0, 56, 56
2, 50177, Note_off_c, 0, 63, 0
2, 50178, Note_off_c, 0, 58, 0
2, 50240, Note_on_c, 0, 51, 52
2, 50241, Note_off_c, 0, 56, 0
2, 50304, Note_off_c, 0, 66, 0
2, 50304, Note_on_c, 0, 66, 45
2, 50304, Note_on_c, 0, 68, 45
2, 50304, Note_on_c, 0, 58, 50
2, 50304, Note_on_c, 0, 56, 66
2, 50305, Note_off_c, 0, 51, 0
2, 50306, Note_off_c, 0, 61, 0
2, 50311, Note_off_c, 0, 70, 0
2, 50368, Note_on_c, 0, 51, 61
2, 50369, Note_off_c, 0, 56, 0
2, 50425, Note_off_c, 0, 58, 0
2, 50432, Note_on_c, 0, 60, 54
2, 50432, Note_on_c, 0, 44, 55
2, 50433, Note_off_c, 0, 51, 0
2, 50496, Note_on_c, 0, 51, 60
2, 50497, Note_off_c, 0, 44, 0
2, 50560, Note_off_c, 0, 60, 0
2, 50560, Note_on_c, 0, 63, 56
2, 50560, Note_on_c, 0, 44, 60
2, 50561, Note_off_c, 0, 51, 0
2, 50624, Note_on_c, 0, 39, 54
2, 50625, Note_off_c, 0, 44, 0
2, 50668, Note_off_c, 0, 66, 0
2, 50668, Note_off_c, 0, 68, 0
2, 50684, Note_off_c, 0, 39, 0
2, 50688, Note_off_c, 0, 63, 0
2, 50688, Note_on_c, 0, 61, 63
2, 50688, Note_on_c, 0, 66, 63
2, 50688, Note_on_c, 0, 70, 63
2, 50688, Note_on_c, 0, 44, 57
2, 50752, Note_on_c, 0, 39, 55
2, 50753, Note_off_c, 0, 44, 0
2, 50816, Note_on_c, 0, 68, 75
2, 50816, Note_on_c, 0, 72, 75
2, 50816, Note_on_c, 0, 77, 75
2, 50816, Note_on_c, 0, 44, 63
2, 50817, Note_off_c, 0, 39, 0
2, 50818, Note_off_c, 0, 61, 0
2, 50818, Note_off_c, 0, 66, 0
2, 50818, Note_off_c, 0, 70, 0
2, 50880, Note_on_c, 0, 51, 71
2, 50881, Note_off_c, 0, 44, 0
2, 50944, Note_on_c, 0, 66, 62
2, 50944, Note_on_c, 0, 70, 62
2, 50944, Note_on_c, 0, 75, 62
2, 50944, Note_on_c, 0, 44, 58
2, 50945, Note_off_c, 0, 51, 0
2, 50946, Note_off_c, 0, 68, 0
2, 50946, Note_off_c, 0, 72, 0
2, 50946, Note_off_c, 0, 77, 0
2, 51008, Note_on_c, 0, 51, 58
2, 51009, Note_off_c, 0, 44, 0
2, 51072, Note_off_c, 0, 66, 0
2, 51072, Note_off_c, 0, 70, 0
2, 51072, Note_on_c, 0, 66, 56
2, 51072, Note_on_c, 0, 70, 56
2, 51072, Note_on_c, 0, 61, 48
2, 51072, Note_on_c, 0, 56, 66
2, 51073, Note_off_c, 0, 51, 0
2, 51074, Note_off_c, 0, 75, 0
2, 51136, Note_on_c, 0, 51, 65
2, 51137, Note_off_c, 0, 56, 0
2, 51200, Note_on_c, 0, 58, 46
2, 51200, Note_on_c, 0, 56, 65
2, 51201, Note_off_c, 0, 51, 0
2, 51202, Note_off_c, 0, 61, 0
2, 51264, Note_on_c, 0, 63, 76
2, 51265, Note_off_c, 0, 56, 0
2, 51328, Note_on_c, 0, 61, 54
2, 51328, Note_on_c, 0, 56, 58
2, 51329, Note_off_c, 0, 63, 0
2, 51330, Note_off_c, 0, 58, 0
2, 51392, Note_on_c, 0, 51, 53
2, 51393, Note_off_c, 0, 56, 0
2, 51456, Note_off_c, 0, 66, 0
2, 51456, Note_on_c, 0, 66, 53
2, 51456, Note_on_c, 0, 68, 53
2, 51456, Note_on_c, 0, 58, 52
2, 51456, Note_on_c, 0, 56, 60
2, 51457, Note_off_c, 0, 51, 0
2, 51458, Note_off_c, 0, 61, 0
2, 51463, Note_off_c, 0, 70, 0
2, 51520, Note_on_c, 0, 51, 60
2, 51521, Note_off_c, 0, 56, 0
2, 51577, Note_off_c, 0, 58, 0
2, 51584, Note_on_c, 0, 60, 51
2, 51584, Note_on_c, 0, 56, 65
2, 51585, Note_off_c, 0, 51, 0
2, 51648, Note_on_c, 0, 51, 60
2, 51649, Note_off_c, 0, 56, 0
2, 51712, Note_off_c, 0, 60, 0
2, 51712, Note_on_c, 0, 63, 55
2, 51712, Note_on_c, 0, 56, 64
2, 51713, Note_off_c, 0, 51, 0
2, 51776, Note_on_c, 0, 51, 61
2, 51777, Note_off_c, 0, 56, 0
2, 51820, Note_off_c, 0, 66, 0
2, 51820, Note_off_c, 0, 68, 0
2, 51836, Note_off_c, 0, 51, 0
2, 51840, Note_off_c, 0, 63, 0
2, 51840, Note_on_c, 0, 75, 84
2, 51840, Control_c, 0, 64, 127
2, 51840, Note_on_c, 0, 61, 77
2, 51840, Note_on_c, 0, 54, 58
2, 51904, Note_on_c, 0, 63, 52
2, 51968, Note_on_c, 0, 66, 52
2, 51970, Note_off_c, 0, 63, 0
2, 52032, Note_on_c, 0, 70, 70
2, 52034, Note_off_c, 0, 66, 0
2, 52096, Note_on_c, 0, 66, 62
2, 52096, Note_on_c, 0, 56, 59
2, 52098, Note_off_c, 0, 70, 0
2, 52101, Note_off_c, 0, 54, 0
2, 52160, Note_on_c, 0, 63, 57
2, 52160, Control_c, 0, 64, 0
2, 52162, Note_off_c, 0, 66, 0
2, 52220, Note_off_c, 0, 63, 0
2, 52224, Control_c, 0, 64, 127
2, 52224, Note_on_c, 0, 58, 64
2, 52226, Note_off_c, 0, 56, 0
2, 52288, Note_on_c, 0, 63, 57
2, 52352, Note_on_c, 0, 66, 61
2, 52354, Note_off_c, 0, 63, 0
2, 52416, Note_on_c, 0, 70, 69
2, 52418, Note_off_c, 0, 66, 0
2, 52480, Note_on_c, 0, 66, 62
2, 52480, Note_on_c, 0, 61, 67
2, 52482, Note_off_c, 0, 70, 0
2, 52485, Note_off_c, 0, 58, 0
2, 52544, Note_on_c, 0, 63, 55
2, 52544, Control_c, 0, 64, 0
2, 52546, Note_off_c, 0, 66, 0
2, 52605, Note_off_c, 0, 63, 0
2, 52608, Note_on_c, 0, 78, 94
2, 52608, Control_c, 0, 64, 127
2, 52608, Note_on_c, 0, 60, 76
2, 52610, Note_off_c, 0, 61, 0
2, 52623, Note_off_c, 0, 75, 0
2, 52623, Note_off_c, 0, 61, 0
2, 52672, Note_on_c, 0, 63, 70
2, 52736, Note_on_c, 0, 66, 80
2, 52737, Note_off_c, 0, 63, 0
2, 52800, Note_on_c, 0, 70, 69
2, 52801, Note_off_c, 0, 66, 0
2, 52864, Note_on_c, 0, 82, 84
2, 52864, Note_on_c, 0, 72, 73
2, 52865, Note_off_c, 0, 70, 0
2, 52869, Note_off_c, 0, 78, 0
2, 52928, Control_c, 0, 64, 0
2, 52928, Note_on_c, 0, 75, 70
2, 52929, Note_off_c, 0, 72, 0
2, 52953, Note_off_c, 0, 60, 0
2, 52985, Note_off_c, 0, 82, 0
2, 52988, Note_off_c, 0, 75, 0
2, 52992, Note_on_c, 0, 75, 59
2, 52992, Control_c, 0, 64, 127
2, 52992, Note_on_c, 0, 61, 46
2, 52992, Note_on_c, 0, 54, 57
2, 53056, Note_on_c, 0, 63, 47
2, 53120, Note_on_c, 0, 66, 50
2, 53122, Note_off_c, 0, 63, 0
2, 53184, Note_on_c, 0, 70, 69
2, 53186, Note_off_c, 0, 66, 0
2, 53248, Note_on_c, 0, 66, 60
2, 53248, Note_on_c, 0, 56, 59
2, 53250, Note_off_c, 0, 70, 0
2, 53253, Note_off_c, 0, 54, 0
2, 53312, Note_on_c, 0, 63, 55
2, 53312, Control_c, 0, 64, 0
2, 53314, Note_off_c, 0, 66, 0
2, 53372, Note_off_c, 0, 63, 0
2, 53376, Control_c, 0, 64, 127
2, 53376, Note_on_c, 0, 58, 62
2, 53378, Note_off_c, 0, 56, 0
2, 53440, Note_on_c, 0, 63, 57
2, 53504, Note_on_c, 0, 66, 60
2, 53506, Note_off_c, 0, 63, 0
2, 53568, Note_on_c, 0, 70, 68
2, 53570, Note_off_c, 0, 66, 0
2, 53632, Note_on_c, 0, 66, 59
2, 53632, Note_on_c, 0, 61, 67
2, 53634, Note_off_c, 0, 70, 0
2, 53637, Note_off_c, 0, 58, 0
2, 53696, Note_on_c, 0, 63, 55
2, 53696, Control_c, 0, 64, 0
2, 53698, Note_off_c, 0, 66, 0
2, 53757, Note_off_c, 0, 63, 0
2, 53760, Note_on_c, 0, 78, 63
2, 53760, Control_c, 0, 64, 127
2, 53760, Note_on_c, 0, 60, 45
2, 53762, Note_off_c, 0, 61, 0
2, 53775, Note_off_c, 0, 75, 0
2, 53775, Note_off_c, 0, 61, 0
2, 53824, Note_on_c, 0, 63, 67
2, 53888, Note_on_c, 0, 66, 70
2, 53889, Note_off_c, 0, 63, 0
2, 53952, Note_on_c, 0, 70, 66
2, 53953, Note_off_c, 0, 66, 0
2, 54016, Note_on_c, 0, 82, 76
2, 54016, Note_on_c, 0, 72, 73
2, 54017, Note_off_c, 0, 70, 0
2, 54021, Note_off_c, 0, 78, 0
2, 54080, Note_on_c, 0, 75, 68
2, 54081, Note_off_c, 0, 72, 0
2, 54099, Control_c, 0, 64, 0
2, 54105, Note_off_c, 0, 60, 0
2, 54137, Note_off_c, 0, 82, 0
2, 54140, Note_off_c, 0, 75, 0
2, 54144, Note_on_c, 0, 87, 84
2, 54144, Control_c, 0, 64, 127
2, 54144, Note_on_c, 0, 66, 43
2, 54208, Note_on_c, 0, 70, 46
2, 54272, Note_on_c, 0, 73, 46
2, 54273, Note_off_c, 0, 70, 0
2, 54336, Note_on_c, 0, 75, 43
2, 54337, Note_off_c, 0, 73, 0
2, 54400, Note_on_c, 0, 78, 44
2, 54401, Note_off_c, 0, 75, 0
2, 54464, Note_on_c, 0, 82, 52
2, 54465, Note_off_c, 0, 78, 0
2, 54483, Control_c, 0, 64, 0
2, 54524, Note_off_c, 0, 82, 0
2, 54528, Control_c, 0, 64, 127
2, 54528, Note_on_c, 0, 66, 26
2, 54592, Note_on_c, 0, 70, 32
2, 54593, Note_off_c, 0, 66, 0
2, 54656, Note_on_c, 0, 73, 48
2, 54657, Note_off_c, 0, 70, 0
2, 54720, Note_on_c, 0, 75, 48
2, 54721, Note_off_c, 0, 73, 0
2, 54784, Note_on_c, 0, 78, 43
2, 54785, Note_off_c, 0, 75, 0
2, 54844, Note_off_c, 0, 78, 0
2, 54848, Note_on_c, 0, 84, 54
2, 54867, Control_c, 0, 64, 0
2, 54912, Note_off_c, 0, 84, 0
2, 54912, Control_c, 0, 64, 127
2, 54912, Note_on_c, 0, 66, 61
2, 54934, Note_off_c, 0, 66, 0
2, 54976, Note_on_c, 0, 70, 55
2, 55040, Note_on_c, 0, 73, 63
2, 55041, Note_off_c, 0, 70, 0
2, 55104, Note_on_c, 0, 75, 51
2, 55105, Note_off_c, 0, 73, 0
2, 55168, Note_on_c, 0, 78, 56
2, 55169, Note_off_c, 0, 75, 0
2, 55232, Note_on_c, 0, 82, 55
2, 55233, Note_off_c, 0, 78, 0
2, 55251, Control_c, 0, 64, 0
2, 55276, Note_off_c, 0, 66, 0
2, 55292, Note_off_c, 0, 82, 0
2, 55296, Control_c, 0, 64, 127
2, 55296, Note_on_c, 0, 66, 35
2, 55360, Note_on_c, 0, 69, 39
2, 55424, Note_on_c, 0, 73, 46
2, 55425, Note_off_c, 0, 69, 0
2, 55488, Note_on_c, 0, 75, 36
2, 55489, Note_off_c, 0, 73, 0
2, 55552, Note_on_c, 0, 78, 49
2, 55553, Note_off_c, 0, 75, 0
2, 55616, Note_on_c, 0, 81, 37
2, 55617, Note_off_c, 0, 78, 0
2, 55635, Control_c, 0, 64, 0
2, 55676, Note_off_c, 0, 81, 0
2, 55680, Note_on_c, 0, 85, 81
2, 55680, Control_c, 0, 64, 127
2, 55680, Note_on_c, 0, 66, 23
2, 55710, Note_off_c, 0, 87, 0
2, 55744, Note_on_c, 0, 69, 30
2, 55745, Note_off_c, 0, 66, 0
2, 55808, Note_on_c, 0, 73, 37
2, 55809, Note_off_c, 0, 69, 0
2, 55872, Note_on_c, 0, 75, 42
2, 55873, Note_off_c, 0, 73, 0
2, 55936, Note_on_c, 0, 78, 38
2, 55937, Note_off_c, 0, 75, 0
2, 56000, Note_on_c, 0, 83, 42
2, 56001, Note_off_c, 0, 78, 0
2, 56019, Control_c, 0, 64, 0
2, 56025, Note_off_c, 0, 66, 0
2, 56060, Note_off_c, 0, 83, 0
2, 56064, Note_on_c, 0, 87, 63
2, 56064, Control_c, 0, 64, 127
2, 56064, Note_on_c, 0, 66, 34
2, 56071, Note_off_c, 0, 85, 0
2, 56128, Note_on_c, 0, 69, 35
2, 56192, Note_on_c, 0, 73, 38
2, 56193, Note_off_c, 0, 69, 0
2, 56256, Note_on_c, 0, 75, 38
2, 56257, Note_off_c, 0, 73, 0
2, 56320, Note_on_c, 0, 78, 46
2, 56321, Note_off_c, 0, 75, 0
2, 56384, Note_on_c, 0, 81, 38
2, 56385, Note_off_c, 0, 78, 0
2, 56403, Control_c, 0, 64, 0
2, 56428, Note_off_c, 0, 87, 0
2, 56428, Note_off_c, 0, 66, 0
2, 56444, Note_off_c, 0, 81, 0
2, 56448, Control_c, 0, 64, 127
2, 56448, Note_on_c, 0, 65, 33
2, 56512, Note_on_c, 0, 68, 37
2, 56576, Note_on_c, 0, 72, 45
2, 56577, Note_off_c, 0, 68, 0
2, 56640, Note_on_c, 0, 77, 39
2, 56641, Note_off_c, 0, 72, 0
2, 56704, Note_on_c, 0, 80, 40
2, 56705, Note_off_c, 0, 77, 0
2, 56768, Note_on_c, 0, 84, 38
2, 56769, Note_off_c, 0, 80, 0
2, 56828, Note_off_c, 0, 84, 0
2, 56832, Note_on_c, 0, 89, 45
2, 56832, Note_on_c, 0, 92, 45
2, 56832, Control_c, 0, 64, 0
2, 57177, Note_off_c, 0, 65, 0
2, 57216, Note_off_c, 0, 89, 0
2, 57216, Note_on_c, 0, 89, 41
2, 57216, Control_c, 0, 64, 127
2, 57216, Note_on_c, 0, 65, 50
2, 57223, Note_off_c, 0, 92, 0
2, 57599, Control_c, 0, 64, 0
2, 57600, Note_off_c, 0, 65, 0
2, 57600, Control_c, 0, 64, 127
2, 57600, Note_on_c, 0, 65, 45
2, 57664, Note_on_c, 0, 69, 50
2, 57728, Note_on_c, 0, 84, 45
2, 57728, Note_on_c, 0, 87, 45
2, 57728, Note_on_c, 0, 72, 54
2, 57729, Note_off_c, 0, 69, 0
2, 57738, Note_off_c, 0, 89, 0
2, 57792, Note_on_c, 0, 75, 52
2, 57793, Note_off_c, 0, 72, 0
2, 57856, Note_on_c, 0, 85, 46
2, 57856, Note_on_c, 0, 89, 46
2, 57856, Control_c, 0, 64, 0
2, 57856, Note_on_c, 0, 77, 59
2, 57857, Note_off_c, 0, 75, 0
2, 57858, Note_off_c, 0, 84, 0
2, 57858, Note_off_c, 0, 87, 0
2, 57920, Note_on_c, 0, 81, 47
2, 57921, Note_off_c, 0, 77, 0
2, 57980, Note_off_c, 0, 81, 0
2, 57984, Note_on_c, 0, 84, 45
2, 57984, Note_on_c, 0, 87, 45
2, 57984, Control_c, 0, 64, 127
2, 57986, Note_off_c, 0, 85, 0
2, 57986, Note_off_c, 0, 89, 0
2, 58329, Note_off_c, 0, 65, 0
2, 58368, Note_on_c, 0, 65, 54
2, 58751, Control_c, 0, 64, 0
2, 58752, Note_off_c, 0, 65, 0
2, 58752, Control_c, 0, 64, 127
2, 58752, Note_on_c, 0, 65, 48
2, 58816, Note_on_c, 0, 68, 50
2, 58835, Note_off_c, 0, 84, 0
2, 58835, Note_off_c, 0, 87, 0
2, 58880, Note_on_c, 0, 82, 49
2, 58880, Note_on_c, 0, 85, 49
2, 58880, Note_on_c, 0, 70, 54
2, 58881, Note_off_c, 0, 68, 0
2, 58944, Note_on_c, 0, 73, 49
2, 58945, Note_off_c, 0, 70, 0
2, 59008, Note_on_c, 0, 84, 49
2, 59008, Note_on_c, 0, 87, 49
2, 59008, Note_on_c, 0, 77, 56
2, 59009, Note_off_c, 0, 73, 0
2, 59010, Note_off_c, 0, 82, 0
2, 59010, Note_off_c, 0, 85, 0
2, 59072, Control_c, 0, 64, 0
2, 59072, Note_on_c, 0, 80, 48
2, 59073, Note_off_c, 0, 77, 0
2, 59132, Note_off_c, 0, 80, 0
2, 59136, Note_on_c, 0, 82, 47
2, 59136, Note_on_c, 0, 85, 47
2, 59136, Control_c, 0, 64, 127
2, 59138, Note_off_c, 0, 84, 0
2, 59138, Note_off_c, 0, 87, 0
2, 59328, Note_off_c, 0, 85, 0
2, 59328, Note_on_c, 0, 85, 51
2, 59328, Note_on_c, 0, 89, 51
2, 59331, Note_off_c, 0, 82, 0
2, 59481, Note_off_c, 0, 65, 0
2, 59520, Note_on_c, 0, 65, 60
2, 59712, Note_off_c, 0, 85, 0
2, 59712, Note_on_c, 0, 82, 42
2, 59712, Note_on_c, 0, 85, 42
2, 59719, Note_off_c, 0, 89, 0
2, 59903, Control_c, 0, 64, 0
2, 59904, Note_off_c, 0, 65, 0
2, 59904, Control_c, 0, 64, 127
2, 59904, Note_on_c, 0, 63, 45
2, 59968, Note_on_c, 0, 66, 43
2, 60032, Note_on_c, 0, 80, 36
2, 60032, Note_on_c, 0, 84, 36
2, 60032, Note_on_c, 0, 68, 47
2, 60033, Note_off_c, 0, 66, 0
2, 60038, Note_off_c, 0, 82, 0
2, 60038, Note_off_c, 0, 85, 0
2, 60096, Note_on_c, 0, 72, 48
2, 60097, Note_off_c, 0, 68, 0
2, 60160, Note_on_c, 0, 82, 54
2, 60160, Note_on_c, 0, 85, 54
2, 60160, Note_on_c, 0, 75, 55
2, 60161, Note_off_c, 0, 72, 0
2, 60162, Note_off_c, 0, 80, 0
2, 60162, Note_off_c, 0, 84, 0
2, 60224, Control_c, 0, 64, 0
2, 60224, Note_on_c, 0, 78, 46
2, 60225, Note_off_c, 0, 75, 0
2, 60284, Note_off_c, 0, 78, 0
2, 60288, Note_on_c, 0, 80, 55
2, 60288, Note_on_c, 0, 84, 55
2, 60288, Control_c, 0, 64, 127
2, 60290, Note_off_c, 0, 82, 0
2, 60290, Note_off_c, 0, 85, 0
2, 60633, Note_off_c, 0, 63, 0
2, 60672, Note_on_c, 0, 63, 50
2, 61017, Note_off_c, 0, 80, 0
2, 61017, Note_off_c, 0, 84, 0
2, 61055, Control_c, 0, 64, 0
2, 61056, Note_off_c, 0, 63, 0
2, 61056, Control_c, 0, 64, 127
2, 61056, Note_on_c, 0, 61, 52
2, 61120, Note_on_c, 0, 63, 52
2, 61184, Note_on_c, 0, 82, 47
2, 61184, Note_on_c, 0, 78, 55
2, 61184, Note_on_c, 0, 66, 58
2, 61186, Note_off_c, 0, 63, 0
2, 61248, Note_on_c, 0, 70, 59
2, 61250, Note_off_c, 0, 66, 0
2, 61312, Note_on_c, 0, 84, 47
2, 61312, Note_on_c, 0, 80, 57
2, 61312, Control_c, 0, 64, 0
2, 61312, Note_on_c, 0, 73, 61
2, 61314, Note_off_c, 0, 82, 0
2, 61314, Note_off_c, 0, 78, 0
2, 61314, Note_off_c, 0, 70, 0
2, 61376, Note_on_c, 0, 75, 55
2, 61378, Note_off_c, 0, 73, 0
2, 61437, Note_off_c, 0, 75, 0
2, 61440, Note_on_c, 0, 82, 47
2, 61440, Note_on_c, 0, 78, 53
2, 61440, Control_c, 0, 64, 127
2, 61442, Note_off_c, 0, 84, 0
2, 61442, Note_off_c, 0, 80, 0
2, 61568, Note_on_c, 0, 87, 57
2, 61570, Note_off_c, 0, 82, 0
2, 61696, Note_on_c, 0, 82, 43
2, 61696, Control_c, 0, 64, 0
2, 61698, Note_off_c, 0, 87, 0
2, 61799, Note_off_c, 0, 61, 0
2, 61824, Note_on_c, 0, 80, 36
2, 61824, Note_on_c, 0, 77, 51
2, 61824, Control_c, 0, 64, 127
2, 61824, Note_on_c, 0, 63, 42
2, 61824, Note_on_c, 0, 60, 53
2, 61826, Note_off_c, 0, 82, 0
2, 61831, Note_off_c, 0, 78, 0
2, 61850, Note_on_c, 0, 65, 42
2, 61876, Note_on_c, 0, 68, 42
2, 61902, Note_on_c, 0, 72, 42
2, 61952, Note_on_c, 0, 82, 55
2, 61954, Note_off_c, 0, 80, 0
2, 62080, Note_on_c, 0, 80, 55
2, 62080, Control_c, 0, 64, 0
2, 62082, Note_off_c, 0, 82, 0
2, 62188, Note_off_c, 0, 63, 0
2, 62188, Note_off_c, 0, 60, 0
2, 62190, Note_off_c, 0, 65, 0
2, 62191, Note_off_c, 0, 68, 0
2, 62192, Note_off_c, 0, 72, 0
2, 62208, Control_c, 0, 64, 127
2, 62208, Note_on_c, 0, 48, 38
2, 62272, Note_on_c, 0, 54, 43
2, 62310, Note_off_c, 0, 77, 0
2, 62323, Note_off_c, 0, 80, 0
2, 62336, Note_on_c, 0, 78, 43
2, 62336, Note_on_c, 0, 75, 55
2, 62336, Note_on_c, 0, 58, 48
2, 62338, Note_off_c, 0, 54, 0
2, 62400, Note_on_c, 0, 60, 41
2, 62402, Note_off_c, 0, 58, 0
2, 62464, Note_on_c, 0, 80, 43
2, 62464, Note_on_c, 0, 77, 57
2, 62464, Control_c, 0, 64, 0
2, 62464, Note_on_c, 0, 63, 46
2, 62466, Note_off_c, 0, 78, 0
2, 62466, Note_off_c, 0, 75, 0
2, 62466, Note_off_c, 0, 60, 0
2, 62528, Note_on_c, 0, 66, 43
2, 62530, Note_off_c, 0, 63, 0
2, 62589, Note_off_c, 0, 66, 0
2, 62592, Note_on_c, 0, 78, 52
2, 62592, Note_on_c, 0, 75, 61
2, 62592, Control_c, 0, 64, 127
2, 62592, Note_on_c, 0, 70, 44
2, 62594, Note_off_c, 0, 80, 0
2, 62594, Note_off_c, 0, 77, 0
2, 62848, Control_c, 0, 64, 0
2, 62951, Note_off_c, 0, 48, 0
2, 62976, Note_on_c, 0, 77, 53
2, 62976, Note_on_c, 0, 69, 55
2, 62976, Control_c, 0, 64, 127
2, 62976, Note_on_c, 0, 60, 47
2, 62976, Note_on_c, 0, 63, 47
2, 62976, Note_on_c, 0, 53, 51
2, 62983, Note_off_c, 0, 78, 0
2, 62983, Note_off_c, 0, 75, 0
2, 62983, Note_off_c, 0, 70, 0
2, 63232, Control_c, 0, 64, 0
2, 63340, Note_off_c, 0, 69, 0
2, 63340, Note_off_c, 0, 60, 0
2, 63340, Note_off_c, 0, 63, 0
2, 63340, Note_off_c, 0, 53, 0
2, 63360, Control_c, 0, 64, 127
2, 63360, Note_on_c, 0, 56, 49
2, 63424, Note_on_c, 0, 58, 49
2, 63462, Note_off_c, 0, 77, 0
2, 63488, Note_on_c, 0, 77, 56
2, 63488, Note_on_c, 0, 73, 54
2, 63488, Note_on_c, 0, 61, 53
2, 63490, Note_off_c, 0, 58, 0
2, 63552, Note_on_c, 0, 65, 49
2, 63554, Note_off_c, 0, 61, 0
2, 63616, Note_on_c, 0, 78, 58
2, 63616, Note_on_c, 0, 75, 57
2, 63616, Control_c, 0, 64, 0
2, 63616, Note_on_c, 0, 68, 53
2, 63618, Note_off_c, 0, 77, 0
2, 63618, Note_off_c, 0, 73, 0
2, 63618, Note_off_c, 0, 65, 0
2, 63680, Note_on_c, 0, 70, 53
2, 63682, Note_off_c, 0, 68, 0
2, 63741, Note_off_c, 0, 70, 0
2, 63744, Note_on_c, 0, 77, 48
2, 63744, Note_on_c, 0, 73, 56
2, 63744, Control_c, 0, 64, 127
2, 63746, Note_off_c, 0, 78, 0
2, 63746, Note_off_c, 0, 75, 0
2, 63872, Note_on_c, 0, 82, 53
2, 63874, Note_off_c, 0, 77, 0
2, 64000, Note_on_c, 0, 77, 44
2, 64000, Control_c, 0, 64, 0
2, 64002, Note_off_c, 0, 82, 0
2, 64103, Note_off_c, 0, 56, 0
2, 64128, Note_off_c, 0, 73, 0
2, 64128, Note_on_c, 0, 75, 38
2, 64128, Note_on_c, 0, 73, 61
2, 64128, Control_c, 0, 64, 127
2, 64128, Note_on_c, 0, 54, 46
2, 64130, Note_off_c, 0, 77, 0
2, 64154, Note_on_c, 0, 58, 46
2, 64180, Note_on_c, 0, 61, 46
2, 64206, Note_on_c, 0, 63, 46
2, 64256, Note_on_c, 0, 77, 54
2, 64258, Note_off_c, 0, 75, 0
2, 64384, Note_on_c, 0, 75, 52
2, 64384, Control_c, 0, 64, 0
2, 64386, Note_off_c, 0, 77, 0
2, 64492, Note_off_c, 0, 73, 0
2, 64492, Note_off_c, 0, 54, 0
2, 64494, Note_off_c, 0, 58, 0
2, 64495, Note_off_c, 0, 61, 0
2, 64496, Note_off_c, 0, 63, 0
2, 64512, Control_c, 0, 64, 127
2, 64512, Note_on_c, 0, 53, 48
2, 64576, Note_on_c, 0, 56, 46
2, 64627, Note_off_c, 0, 75, 0
2, 64640, Note_on_c, 0, 70, 55
2, 64640, Note_on_c, 0, 73, 55
2, 64640, Note_on_c, 0, 58, 50
2, 64641, Note_off_c, 0, 56, 0
2, 64704, Note_on_c, 0, 61, 51
2, 64705, Note_off_c, 0, 58, 0
2, 64768, Note_on_c, 0, 72, 58
2, 64768, Note_on_c, 0, 75, 58
2, 64768, Control_c, 0, 64, 0
2, 64768, Note_on_c, 0, 65, 61
2, 64769, Note_off_c, 0, 61, 0
2, 64770, Note_off_c, 0, 70, 0
2, 64770, Note_off_c, 0, 73, 0
2, 64832, Control_c, 0, 64, 127
2, 64832, Note_on_c, 0, 68, 50
2, 64833, Note_off_c, 0, 65, 0
2, 64892, Note_off_c, 0, 68, 0
2, 64896, Note_on_c, 0, 70, 54
2, 64896, Note_on_c, 0, 73, 54
2, 64898, Note_off_c, 0, 72, 0
2, 64898, Note_off_c, 0, 75, 0
2, 65088, Control_c, 0, 64, 0
2, 65241, Note_off_c, 0, 53, 0
2, 65280, Note_on_c, 0, 68, 51
2, 65280, Note_on_c, 0, 72, 51
2, 65280, Control_c, 0, 64, 127
2, 65280, Note_on_c, 0, 54, 48
2, 65280, Note_on_c, 0, 60, 48
2, 65280, Note_on_c, 0, 51, 39
2, 65287, Note_off_c, 0, 70, 0
2, 65287, Note_off_c, 0, 73, 0
2, 65472, Note_off_c, 0, 51, 0
2, 65472, Note_on_c, 0, 44, 41
2, 65536, Control_c, 0, 64, 0
2, 65644, Note_off_c, 0, 68, 0
2, 65644, Note_off_c, 0, 72, 0
2, 65664, Note_off_c, 0, 54, 0
2, 65664, Note_off_c, 0, 60, 0
2, 65664, Note_off_c, 0, 44, 0
2, 65664, Control_c, 0, 64, 127
2, 65664, Note_on_c, 0, 37, 38
2, 65664, Note_on_c, 0, 44, 38
2, 65792, Note_on_c, 0, 53, 43
2, 65792, Note_on_c, 0, 56, 43
2, 65794, Note_off_c, 0, 37, 0
2, 65794, Note_off_c, 0, 44, 0
2, 65920, Note_on_c, 0, 65, 61
2, 65920, Note_on_c, 0, 68, 61
2, 65922, Note_off_c, 0, 53, 0
2, 65922, Note_off_c, 0, 56, 0
2, 66048, Note_on_c, 0, 77, 38
2, 66048, Note_on_c, 0, 80, 38
2, 66048, Control_c, 0, 64, 0
2, 66048, Control_c, 0, 64, 127
2, 66048, Note_on_c, 0, 59, 53
2, 66432, Note_off_c, 0, 77, 0
2, 66432, Note_on_c, 0, 73, 33
2, 66432, Note_on_c, 0, 77, 33
2, 66439, Note_off_c, 0, 80, 0
2, 66631, Control_c, 0, 64, 0
2, 66771, Note_off_c, 0, 65, 0
2, 66771, Note_off_c, 0, 68, 0
2, 66777, Note_off_c, 0, 59, 0
2, 66816, Control_c, 0, 64, 127
2, 66816, Note_on_c, 0, 42, 33
2, 66816, Note_on_c, 0, 49, 33
2, 66944, Note_on_c, 0, 75, 47
2, 66944, Note_on_c, 0, 66, 59
2, 66944, Note_on_c, 0, 70, 59
2, 66944, Note_on_c, 0, 49, 38
2, 66944, Note_on_c, 0, 54, 38
2, 66944, Note_on_c, 0, 58, 38
2, 66944, Note_on_c, 0, 61, 38
2, 66954, Note_off_c, 0, 73, 0
2, 66954, Note_off_c, 0, 77, 0
2, 67072, Note_on_c, 0, 77, 52
2, 67072, Control_c, 0, 64, 0
2, 67074, Note_off_c, 0, 75, 0
2, 67200, Note_on_c, 0, 75, 44
2, 67200, Control_c, 0, 64, 127
2, 67202, Note_off_c, 0, 77, 0
2, 67584, Note_off_c, 0, 42, 0
2, 67584, Note_off_c, 0, 49, 0
2, 67916, Note_off_c, 0, 66, 0
2, 67916, Note_off_c, 0, 70, 0
2, 67967, Control_c, 0, 64, 0
2, 67968, Note_off_c, 0, 49, 0
2, 67968, Note_off_c, 0, 54, 0
2, 67968, Note_off_c, 0, 58, 0
2, 67968, Note_off_c, 0, 61, 0
2, 67968, Control_c, 0, 64, 127
2, 67968, Note_on_c, 0, 44, 48
2, 68051, Note_off_c, 0, 75, 0
2, 68096, Note_on_c, 0, 61, 43
2, 68096, Note_on_c, 0, 73, 43
2, 68096, Note_on_c, 0, 68, 58
2, 68096, Note_on_c, 0, 53, 36
2, 68096, Note_on_c, 0, 56, 36
2, 68224, Note_on_c, 0, 63, 43
2, 68224, Note_on_c, 0, 75, 43
2, 68224, Control_c, 0, 64, 0
2, 68226, Note_off_c, 0, 61, 0
2, 68226, Note_off_c, 0, 73, 0
2, 68352, Note_on_c, 0, 68, 46
2, 68352, Note_on_c, 0, 77, 46
2, 68352, Note_on_c, 0, 80, 46
2, 68352, Note_off_c, 0, 53, 0
2, 68352, Note_off_c, 0, 56, 0
2, 68352, Control_c, 0, 64, 127
2, 68352, Note_on_c, 0, 61, 54
2, 68352, Note_on_c, 0, 65, 54
2, 68352, Note_on_c, 0, 59, 56
2, 68354, Note_off_c, 0, 63, 0
2, 68354, Note_off_c, 0, 75, 0
2, 68357, Note_off_c, 0, 68, 0
2, 68736, Note_off_c, 0, 77, 0
2, 68736, Note_on_c, 0, 65, 37
2, 68736, Note_on_c, 0, 73, 37
2, 68736, Note_on_c, 0, 77, 37
2, 68736, Note_off_c, 0, 44, 0
2, 68736, Note_off_c, 0, 61, 0
2, 68736, Note_off_c, 0, 65, 0
2, 68736, Note_on_c, 0, 61, 38
2, 68743, Note_off_c, 0, 68, 0
2, 68743, Note_off_c, 0, 80, 0
2, 68951, Control_c, 0, 64, 0
2, 69120, Note_off_c, 0, 59, 0
2, 69120, Note_off_c, 0, 61, 0
2, 69120, Control_c, 0, 64, 127
2, 69120, Note_on_c, 0, 46, 51
2, 69127, Note_off_c, 0, 65, 0
2, 69127, Note_off_c, 0, 73, 0
2, 69248, Note_on_c, 0, 75, 40
2, 69248, Note_on_c, 0, 65, 57
2, 69248, Note_on_c, 0, 70, 57
2, 69248, Note_on_c, 0, 63, 40
2, 69248, Note_on_c, 0, 53, 50
2, 69248, Note_on_c, 0, 58, 50
2, 69258, Note_off_c, 0, 77, 0
2, 69376, Note_on_c, 0, 77, 39
2, 69376, Control_c, 0, 64, 0
2, 69378, Note_off_c, 0, 75, 0
2, 69504, Note_on_c, 0, 75, 41
2, 69504, Control_c, 0, 64, 127
2, 69506, Note_off_c, 0, 77, 0
2, 69888, Note_on_c, 0, 73, 39
2, 69888, Note_off_c, 0, 46, 0
2, 69888, Note_off_c, 0, 63, 0
2, 69888, Note_on_c, 0, 61, 40
2, 69895, Note_off_c, 0, 75, 0
2, 70220, Note_off_c, 0, 65, 0
2, 70220, Note_off_c, 0, 70, 0
2, 70252, Note_off_c, 0, 73, 0
2, 70271, Control_c, 0, 64, 0
2, 70272, Note_off_c, 0, 53, 0
2, 70272, Note_off_c, 0, 58, 0
2, 70272, Note_off_c, 0, 61, 0
2, 70272, Control_c, 0, 64, 127
2, 70272, Note_on_c, 0, 41, 53
2, 70400, Note_on_c, 0, 61, 36
2, 70400, Note_on_c, 0, 56, 54
2, 70528, Note_on_c, 0, 63, 39
2, 70528, Control_c, 0, 64, 0
2, 70532, Note_off_c, 0, 61, 0
2, 70656, Note_on_c, 0, 61, 50
2, 70656, Note_on_c, 0, 65, 50
2, 70656, Note_on_c, 0, 70, 50
2, 70656, Control_c, 0, 64, 127
2, 70660, Note_off_c, 0, 63, 0
2, 70666, Note_off_c, 0, 56, 0
2, 71040, Note_off_c, 0, 61, 0
2, 71040, Note_off_c, 0, 65, 0
2, 71040, Note_on_c, 0, 56, 46
2, 71040, Note_on_c, 0, 61, 46
2, 71040, Note_on_c, 0, 65, 46
2, 71054, Note_off_c, 0, 70, 0
2, 71167, Control_c, 0, 64, 0
2, 71385, Note_off_c, 0, 56, 0
2, 71385, Note_off_c, 0, 61, 0
2, 71385, Note_off_c, 0, 65, 0
2, 71423, Control_c, 0, 64, 127
2, 71424, Note_off_c, 0, 41, 0
2, 71424, Note_on_c, 0, 39, 58
2, 71552, Note_on_c, 0, 66, 41
2, 71552, Note_on_c, 0, 58, 65
2, 71552, Note_on_c, 0, 61, 65
2, 71680, Note_on_c, 0, 68, 42
2, 71680, Control_c, 0, 64, 0
2, 71684, Note_off_c, 0, 66, 0
2, 71808, Note_on_c, 0, 73, 58
2, 71808, Note_on_c, 0, 66, 54
2, 71808, Note_on_c, 0, 70, 54
2, 71808, Control_c, 0, 64, 127
2, 71808, Note_on_c, 0, 51, 56
2, 71812, Note_off_c, 0, 68, 0
2, 71818, Note_off_c, 0, 58, 0
2, 71818, Note_off_c, 0, 61, 0
2, 72172, Note_off_c, 0, 66, 0
2, 72179, Note_off_c, 0, 73, 0
2, 72179, Note_off_c, 0, 70, 0
2, 72192, Note_on_c, 0, 70, 53
2, 72192, Note_on_c, 0, 61, 40
2, 72192, Note_on_c, 0, 66, 40
2, 72192, Note_off_c, 0, 39, 0
2, 72192, Note_on_c, 0, 63, 52
2, 72199, Note_off_c, 0, 51, 0
2, 72341, Control_c, 0, 64, 0
2, 72556, Note_off_c, 0, 70, 0
2, 72556, Note_off_c, 0, 61, 0
2, 72556, Note_off_c, 0, 66, 0
2, 72556, Note_off_c, 0, 63, 0
2, 72576, Control_c, 0, 64, 127
2, 72576, Note_on_c, 0, 44, 48
2, 72704, Note_on_c, 0, 70, 46
2, 72704, Note_on_c, 0, 60, 43
2, 72704, Note_on_c, 0, 66, 43
2, 72768, Note_on_c, 0, 51, 45
2, 72832, Note_on_c, 0, 72, 49
2, 72832, Control_c, 0, 64, 0
2, 72834, Note_off_c, 0, 70, 0
2, 72960, Note_on_c, 0, 77, 68
2, 72960, Note_on_c, 0, 68, 55
2, 72960, Note_on_c, 0, 72, 55
2, 72960, Note_off_c, 0, 51, 0
2, 72960, Control_c, 0, 64, 127
2, 72960, Note_on_c, 0, 80, 80
2, 72962, Note_off_c, 0, 72, 0
2, 72965, Note_off_c, 0, 60, 0
2, 72965, Note_off_c, 0, 66, 0
2, 73216, Control_c, 0, 64, 0
2, 73344, Note_on_c, 0, 68, 54
2, 73344, Note_on_c, 0, 60, 52
2, 73344, Note_on_c, 0, 66, 52
2, 73344, Note_off_c, 0, 44, 0
2, 73344, Note_off_c, 0, 80, 0
2, 73344, Control_c, 0, 64, 127
2, 73344, Note_on_c, 0, 56, 45
2, 73351, Note_off_c, 0, 77, 0
2, 73351, Note_off_c, 0, 68, 0
2, 73351, Note_off_c, 0, 72, 0
2, 73600, Control_c, 0, 64, 0
2, 73708, Note_off_c, 0, 68, 0
2, 73708, Note_off_c, 0, 60, 0
2, 73708, Note_off_c, 0, 66, 0
2, 73728, Note_off_c, 0, 56, 0
2, 73728, Control_c, 0, 64, 127
2, 73728, Note_on_c, 0, 37, 43
2, 73792, Note_on_c, 0, 44, 46
2, 73856, Note_on_c, 0, 49, 48
2, 73857, Note_off_c, 0, 44, 0
2, 73920, Note_on_c, 0, 53, 51
2, 73921, Note_off_c, 0, 49, 0
2, 73984, Note_on_c, 0, 56, 54
2, 73985, Note_off_c, 0, 53, 0
2, 74044, Note_off_c, 0, 56, 0
2, 74048, Note_on_c, 0, 61, 51
2, 74092, Note_off_c, 0, 37, 0
2, 74112, Control_c, 0, 64, 0
2, 74112, Note_off_c, 0, 61, 0
2, 74112, Control_c, 0, 64, 127
2, 74112, Note_on_c, 0, 41, 43
2, 74176, Note_on_c, 0, 48, 41
2, 74240, Note_on_c, 0, 53, 48
2, 74241, Note_off_c, 0, 48, 0
2, 74304, Note_on_c, 0, 56, 46
2, 74305, Note_off_c, 0, 53, 0
2, 74368, Note_on_c, 0, 60, 51
2, 74369, Note_off_c, 0, 56, 0
2, 74432, Control_c, 0, 64, 0
2, 74432, Note_on_c, 0, 65, 49
2, 74433, Note_off_c, 0, 60, 0
2, 74476, Note_off_c, 0, 41, 0
2, 74492, Note_off_c, 0, 65, 0
2, 74496, Control_c, 0, 64, 127
2, 74496, Note_on_c, 0, 37, 42
2, 74560, Note_on_c, 0, 44, 42
2, 74624, Note_on_c, 0, 49, 45
2, 74625, Note_off_c, 0, 44, 0
2, 74688, Note_on_c, 0, 53, 43
2, 74689, Note_off_c, 0, 49, 0
2, 74752, Note_on_c, 0, 56, 45
2, 74753, Note_off_c, 0, 53, 0
2, 74816, Control_c, 0, 64, 0
2, 74816, Note_on_c, 0, 61, 49
2, 74817, Note_off_c, 0, 56, 0
2, 74860, Note_off_c, 0, 37, 0
2, 74876, Note_off_c, 0, 61, 0
2, 74880, Control_c, 0, 64, 127
2, 74880, Note_on_c, 0, 41, 42
2, 74944, Note_on_c, 0, 48, 45
2, 75008, Note_on_c, 0, 53, 51
2, 75009, Note_off_c, 0, 48, 0
2, 75072, Note_on_c, 0, 56, 44
2, 75073, Note_off_c, 0, 53, 0
2, 75136, Note_on_c, 0, 60, 50
2, 75137, Note_off_c, 0, 56, 0
2, 75200, Control_c, 0, 64, 0
2, 75200, Note_on_c, 0, 65, 48
2, 75201, Note_off_c, 0, 60, 0
2, 75244, Note_off_c, 0, 41, 0
2, 75260, Note_off_c, 0, 65, 0
2, 75264, Note_on_c, 0, 71, 67
2, 75264, Note_on_c, 0, 68, 50
2, 75264, Control_c, 0, 64, 127
2, 75264, Note_on_c, 0, 44, 44
2, 75328, Note_on_c, 0, 52, 54
2, 75392, Note_on_c, 0, 56, 60
2, 75393, Note_off_c, 0, 52, 0
2, 75456, Note_on_c, 0, 59, 46
2, 75457, Note_off_c, 0, 56, 0
2, 75520, Note_on_c, 0, 64, 50
2, 75521, Note_off_c, 0, 59, 0
2, 75584, Control_c, 0, 64, 0
2, 75584, Note_on_c, 0, 66, 45
2, 75585, Note_off_c, 0, 64, 0
2, 75648, Note_on_c, 0, 73, 72
2, 75648, Note_on_c, 0, 64, 50
2, 75648, Control_c, 0, 64, 127
2, 75648, Note_on_c, 0, 68, 48
2, 75649, Note_off_c, 0, 66, 0
2, 75655, Note_off_c, 0, 71, 0
2, 75655, Note_off_c, 0, 68, 0
2, 75968, Control_c, 0, 64, 0
2, 75993, Note_off_c, 0, 44, 0
2, 76012, Note_off_c, 0, 73, 0
2, 76012, Note_off_c, 0, 64, 0
2, 76012, Note_off_c, 0, 68, 0
2, 76032, Control_c, 0, 64, 127
2, 76032, Note_on_c, 0, 49, 43
2, 76096, Note_on_c, 0, 56, 45
2, 76160, Note_on_c, 0, 61, 47
2, 76161, Note_off_c, 0, 56, 0
2, 76224, Note_on_c, 0, 65, 45
2, 76225, Note_off_c, 0, 61, 0
2, 76288, Note_on_c, 0, 68, 55
2, 76289, Note_off_c, 0, 65, 0
2, 76352, Control_c, 0, 64, 0
2, 76352, Note_on_c, 0, 73, 54
2, 76353, Note_off_c, 0, 68, 0
2, 76396, Note_off_c, 0, 49, 0
2, 76412, Note_off_c, 0, 73, 0
2, 76416, Control_c, 0, 64, 127
2, 76416, Note_on_c, 0, 53, 45
2, 76480, Note_on_c, 0, 60, 50
2, 76544, Note_on_c, 0, 65, 57
2, 76545, Note_off_c, 0, 60, 0
2, 76608, Note_on_c, 0, 68, 55
2, 76609, Note_off_c, 0, 65, 0
2, 76672, Note_on_c, 0, 72, 60
2, 76673, Note_off_c, 0, 68, 0
2, 76736, Control_c, 0, 64, 0
2, 76736, Note_on_c, 0, 77, 52
2, 76737, Note_off_c, 0, 72, 0
2, 76780, Note_off_c, 0, 53, 0
2, 76796, Note_off_c, 0, 77, 0
2, 76800, Control_c, 0, 64, 127
2, 76800, Note_on_c, 0, 49, 46
2, 76864, Note_on_c, 0, 56, 49
2, 76928, Note_on_c, 0, 61, 54
2, 76929, Note_off_c, 0, 56, 0
2, 76992, Note_on_c, 0, 65, 49
2, 76993, Note_off_c, 0, 61, 0
2, 77056, Note_on_c, 0, 68, 51
2, 77057, Note_off_c, 0, 65, 0
2, 77120, Control_c, 0, 64, 0
2, 77120, Note_on_c, 0, 73, 56
2, 77121, Note_off_c, 0, 68, 0
2, 77164, Note_off_c, 0, 49, 0
2, 77180, Note_off_c, 0, 73, 0
2, 77184, Control_c, 0, 64, 127
2, 77184, Note_on_c, 0, 53, 42
2, 77248, Note_on_c, 0, 60, 48
2, 77312, Note_on_c, 0, 65, 50
2, 77313, Note_off_c, 0, 60, 0
2, 77376, Note_on_c, 0, 68, 46
2, 77377, Note_off_c, 0, 65, 0
2, 77440, Note_on_c, 0, 72, 52
2, 77441, Note_off_c, 0, 68, 0
2, 77504, Control_c, 0, 64, 0
2, 77504, Note_on_c, 0, 77, 50
2, 77505, Note_off_c, 0, 72, 0
2, 77548, Note_off_c, 0, 53, 0
2, 77564, Note_off_c, 0, 77, 0
2, 77568, Note_on_c, 0, 83, 73
2, 77568, Note_on_c, 0, 80, 62
2, 77568, Control_c, 0, 64, 127
2, 77568, Note_on_c, 0, 56, 49
2, 77632, Note_on_c, 0, 59, 53
2, 77696, Note_on_c, 0, 64, 62
2, 77697, Note_off_c, 0, 59, 0
2, 77760, Note_on_c, 0, 68, 54
2, 77761, Note_off_c, 0, 64, 0
2, 77824, Note_on_c, 0, 71, 59
2, 77825, Note_off_c, 0, 68, 0
2, 77888, Control_c, 0, 64, 0
2, 77888, Control_c, 0, 64, 127
2, 77888, Note_on_c, 0, 76, 56
2, 77889, Note_off_c, 0, 71, 0
2, 77952, Note_on_c, 0, 85, 82
2, 77959, Note_off_c, 0, 83, 0
2, 78297, Note_off_c, 0, 80, 0
2, 78297, Note_off_c, 0, 56, 0
2, 78313, Note_off_c, 0, 76, 0
2, 78316, Note_off_c, 0, 85, 0
2, 78335, Control_c, 0, 64, 0
2, 78336, Note_on_c, 0, 83, 59
2, 78336, Note_on_c, 0, 80, 56
2, 78336, Control_c, 0, 64, 127
2, 78336, Note_on_c, 0, 56, 45
2, 78400, Note_on_c, 0, 59, 40
2, 78464, Note_on_c, 0, 64, 49
2, 78465, Note_off_c, 0, 59, 0
2, 78528, Note_on_c, 0, 68, 50
2, 78529, Note_off_c, 0, 64, 0
2, 78592, Note_on_c, 0, 71, 57
2, 78593, Note_off_c, 0, 68, 0
2, 78622, Control_c, 0, 64, 0
2, 78656, Control_c, 0, 64, 127
2, 78656, Note_on_c, 0, 76, 52
2, 78657, Note_off_c, 0, 71, 0
2, 78720, Note_on_c, 0, 85, 59
2, 78727, Note_off_c, 0, 83, 0
2, 78942, Control_c, 0, 64, 0
2, 79065, Note_off_c, 0, 56, 0
2, 79081, Note_off_c, 0, 76, 0
2, 79104, Note_on_c, 0, 88, 67
2, 79104, Control_c, 0, 64, 127
2, 79104, Note_on_c, 0, 44, 43
2, 79111, Note_off_c, 0, 85, 0
2, 79119, Note_off_c, 0, 80, 0
2, 79390, Control_c, 0, 64, 0
2, 79468, Note_off_c, 0, 88, 0
2, 79488, Note_on_c, 0, 89, 72
2, 79488, Note_on_c, 0, 92, 72
2, 79488, Note_off_c, 0, 44, 0
2, 79488, Control_c, 0, 64, 127
2, 79488, Note_on_c, 0, 37, 45
2, 79552, Note_on_c, 0, 44, 52
2, 79616, Note_on_c, 0, 49, 56
2, 79617, Note_off_c, 0, 44, 0
2, 79680, Note_on_c, 0, 53, 48
2, 79681, Note_off_c, 0, 49, 0
2, 79744, Note_on_c, 0, 56, 46
2, 79745, Note_off_c, 0, 53, 0
2, 79808, Note_on_c, 0, 61, 53
2, 79809, Note_off_c, 0, 56, 0
2, 79872, Note_on_c, 0, 65, 54
2, 79873, Note_off_c, 0, 61, 0
2, 80000, Note_on_c, 0, 68, 52
2, 80002, Note_off_c, 0, 65, 0
2, 80128, Note_on_c, 0, 73, 64
2, 80130, Note_off_c, 0, 68, 0
2, 80256, Note_on_c, 0, 77, 52
2, 80258, Note_off_c, 0, 73, 0
2, 80271, Note_off_c, 0, 37, 0
2, 80384, Note_on_c, 0, 80, 54
2, 80386, Note_off_c, 0, 77, 0
2, 80512, Note_on_c, 0, 85, 64
2, 80514, Note_off_c, 0, 80, 0
2, 80586, Control_c, 0, 64, 0
2, 80633, Note_off_c, 0, 85, 0
2, 80639, Control_c, 0, 64, 127
2, 80640, Note_off_c, 0, 89, 0
2, 80640, Note_off_c, 0, 92, 0
2, 80640, Note_on_c, 0, 80, 42
2, 80640, Note_on_c, 0, 61, 38
2, 80658, Note_on_c, 0, 85, 42
2, 80658, Note_on_c, 0, 68, 38
2, 80676, Note_on_c, 0, 89, 42
2, 80676, Note_on_c, 0, 73, 38
2, 80694, Note_on_c, 0, 92, 42
2, 80694, Note_on_c, 0, 77, 38
2, 81408, Note_off_c, 0, 80, 0
2, 81408, Note_off_c, 0, 85, 0
2, 81408, Note_off_c, 0, 89, 0
2, 81408, Note_off_c, 0, 92, 0
2, 81408, Control_c, 0, 64, 0
2, 81408, Note_off_c, 0, 61, 0
2, 81408, Note_off_c, 0, 68, 0
2, 81408, Note_off_c, 0, 73, 0
2, 81408, Note_off_c, 0, 77, 0
2, 81409, End_track
0, 0, End_of_file
